<svg xmlns="http://www.w3.org/2000/svg" width="269.019" height="90.839" viewBox="0 0 269.019 90.839"><g transform="translate(-164.525 258.985)"><path d="M166.118-119.736h0a5.686,5.686,0,0,0,.222,1.548,3.962,3.962,0,0,0,.708,1.105,2.748,2.748,0,0,0,1.107.751,3.226,3.226,0,0,0,1.328.221,2.506,2.506,0,0,0,.8-.133,4.2,4.2,0,0,0,.752-.442,4.05,4.05,0,0,0,.621-.619,5.764,5.764,0,0,0,.442-.664l.576.354a9.5,9.5,0,0,1-.62.8,2.892,2.892,0,0,1-.8.664,3.12,3.12,0,0,1-1.018.487,5.259,5.259,0,0,1-1.239.176,5.158,5.158,0,0,1-1.859-.353,4.37,4.37,0,0,1-1.417-.929,4.637,4.637,0,0,1-.885-1.326,4.143,4.143,0,0,1-.31-1.636,4.464,4.464,0,0,1,.133-1.106,4.049,4.049,0,0,1,.4-1.016,6.852,6.852,0,0,1,.708-.884,4.21,4.21,0,0,1,.885-.664,4.847,4.847,0,0,1,1.107-.442,4.1,4.1,0,0,1,1.284-.177,4.851,4.851,0,0,1,1.2.177,3.658,3.658,0,0,1,1.018.487,2.892,2.892,0,0,1,.8.664,3.777,3.777,0,0,1,.62.8l-.62.4a7.822,7.822,0,0,0-.531-.884,3.5,3.5,0,0,0-.576-.575,2.129,2.129,0,0,0-.708-.354,2.068,2.068,0,0,0-.753-.133,3.235,3.235,0,0,0-1.328.265,3.573,3.573,0,0,0-1.062.751,3.352,3.352,0,0,0-.708,1.15A4.2,4.2,0,0,0,166.118-119.736Z" transform="translate(0 -55.352)" fill="#007ea4"/><path d="M183.778-117.984h0a2.525,2.525,0,0,0-.531.176c-.177.088-.4.177-.576.265l-.531.265a3.838,3.838,0,0,0-.444.354,2.428,2.428,0,0,0-.31.4,1.291,1.291,0,0,0-.089.4,1.308,1.308,0,0,0,.089.442.961.961,0,0,0,.221.353.826.826,0,0,0,.31.265,1.3,1.3,0,0,0,.4.088,1.225,1.225,0,0,0,.4-.044c.133-.044.221-.088.354-.133a2.469,2.469,0,0,0,.354-.221,2.453,2.453,0,0,0,.354-.265Zm1.284,3.626h-1.284v-.841a2.862,2.862,0,0,0-.4.354c-.177.088-.31.221-.487.31a1.915,1.915,0,0,1-.531.221,1.85,1.85,0,0,1-.709.088,2.708,2.708,0,0,1-.664-.088,1.968,1.968,0,0,1-.487-.354,1.254,1.254,0,0,1-.354-.487,2.6,2.6,0,0,1-.089-.619,2.066,2.066,0,0,1,.133-.752,5.05,5.05,0,0,1,.442-.575,2.492,2.492,0,0,1,.664-.442,3.291,3.291,0,0,1,.8-.353c.266-.088.531-.177.841-.265a8.02,8.02,0,0,1,.841-.221v-.4a3.825,3.825,0,0,0-.044-.753,1.941,1.941,0,0,0-.265-.442.644.644,0,0,0-.4-.265,1.6,1.6,0,0,0-.487-.088,1.657,1.657,0,0,0-.531.088.8.8,0,0,0-.31.221.661.661,0,0,0-.133.31.861.861,0,0,0-.044.354.864.864,0,0,1-.044.31.629.629,0,0,1-.089.265c-.044.044-.088.132-.177.176a.656.656,0,0,1-.31.044.667.667,0,0,1-.487-.177,1.08,1.08,0,0,1-.177-.53.93.93,0,0,1,.221-.575,1.889,1.889,0,0,1,.531-.487,3.348,3.348,0,0,1,.8-.309,3.643,3.643,0,0,1,.974-.088,6.823,6.823,0,0,1,1.062.088,2.34,2.34,0,0,1,.664.353,1.208,1.208,0,0,1,.4.531,1.614,1.614,0,0,1,.133.664Z" transform="translate(-6.372 -56.706)" fill="#007ea4"/><path d="M191.318-120.638h1.239v1.193c.133-.176.265-.309.4-.486a4.231,4.231,0,0,1,.443-.442,4.948,4.948,0,0,1,.487-.265.877.877,0,0,1,.487-.088.862.862,0,0,1,.354.044.713.713,0,0,1,.31.177.532.532,0,0,1,.221.221.633.633,0,0,1,.089.31.543.543,0,0,1-.222.442.949.949,0,0,1-.531.178c-.133,0-.221-.045-.31-.045a.972.972,0,0,1-.222-.133c-.088-.044-.177-.044-.221-.088a.561.561,0,0,0-.265-.044.636.636,0,0,0-.265.088.777.777,0,0,0-.221.177c-.089.089-.178.222-.266.31l-.265.4v4.334h-1.239Z" transform="translate(-10.989 -56.706)" fill="#007ea4"/><path d="M199.512-122.525h0l.885-.353h.354v6.368h-1.239Zm.62-3.449h0a.561.561,0,0,1,.265.044.968.968,0,0,1,.221.133.442.442,0,0,1,.177.221.328.328,0,0,1,.045.221.552.552,0,0,1-.045.265c-.044.044-.088.133-.177.177a.968.968,0,0,1-.221.133.561.561,0,0,1-.265.044.561.561,0,0,1-.265-.044l-.266-.133c-.044-.044-.088-.133-.133-.177a.559.559,0,0,1-.044-.265.332.332,0,0,1,.044-.221.968.968,0,0,1,.133-.221l.266-.133A.561.561,0,0,1,200.131-125.974Z" transform="translate(-14.313 -54.553)" fill="#007ea4"/><path d="M204.226-120.638h1.239v1.149a5.508,5.508,0,0,1,1.2-.928,2.578,2.578,0,0,1,1.239-.309,1.415,1.415,0,0,1,.62.133,1.524,1.524,0,0,1,.531.4,2.709,2.709,0,0,1,.31.619,2,2,0,0,1,.133.708v4.51h-1.24v-4.289a1.454,1.454,0,0,0-.265-.929.972.972,0,0,0-.752-.309,1.226,1.226,0,0,0-.4.044c-.133.044-.31.133-.442.177a2.9,2.9,0,0,0-.487.31c-.133.088-.265.221-.443.354v4.643h-1.239Z" transform="translate(-16.283 -56.706)" fill="#007ea4"/><path d="M217.9-116.7h0a1.178,1.178,0,0,0,.531-.133,2.691,2.691,0,0,0,.443-.31,1.717,1.717,0,0,0,.265-.487,1.55,1.55,0,0,0,.133-.619,2.557,2.557,0,0,0-.133-.84,2.123,2.123,0,0,0-.354-.708,1.538,1.538,0,0,0-.487-.442,1.017,1.017,0,0,0-.62-.177,1.05,1.05,0,0,0-.531.133,1.529,1.529,0,0,0-.4.354,2.7,2.7,0,0,0-.221.53,3.356,3.356,0,0,0-.044.664,3.966,3.966,0,0,0,.088.8,2.315,2.315,0,0,0,.31.663,1.262,1.262,0,0,0,.443.4A.889.889,0,0,0,217.9-116.7Zm-1.549,2.3h0a1.377,1.377,0,0,0-.4.486,1.067,1.067,0,0,0-.178.575.538.538,0,0,0,.178.4.925.925,0,0,0,.442.354,2.669,2.669,0,0,0,.708.221,7.342,7.342,0,0,0,1.062.088,8.031,8.031,0,0,0,1.107-.088,6.413,6.413,0,0,0,.841-.265,2.741,2.741,0,0,0,.531-.354.566.566,0,0,0,.177-.442.609.609,0,0,0-.4-.575,2.8,2.8,0,0,0-1.151-.221h-.93a5.653,5.653,0,0,0-.841-.044c-.265-.044-.487-.044-.708-.088C216.575-114.358,216.442-114.4,216.354-114.4Zm5.047-5.881h0v.531h-1.2a2.342,2.342,0,0,1,.31.575,1.4,1.4,0,0,1,.089.619,1.976,1.976,0,0,1-.177.884,3.115,3.115,0,0,1-.62.708,4.523,4.523,0,0,1-.93.442,4.832,4.832,0,0,1-1.151.133,1.659,1.659,0,0,1-.487-.044,1.313,1.313,0,0,1-.443-.088,1.193,1.193,0,0,0-.31.354.713.713,0,0,0-.133.4.327.327,0,0,0,.221.265,1.01,1.01,0,0,0,.576.132l2.346.133a2.948,2.948,0,0,1,.93.133,1.158,1.158,0,0,1,.575.265,1.011,1.011,0,0,1,.31.442,2.213,2.213,0,0,1,.089.53,1.936,1.936,0,0,1-.266,1.017,2.819,2.819,0,0,1-.708.752,6.107,6.107,0,0,1-1.2.486,7.873,7.873,0,0,1-1.55.177,6.367,6.367,0,0,1-2.346-.354c-.487-.265-.753-.575-.753-.928a1.174,1.174,0,0,1,.133-.53,3.149,3.149,0,0,1,.354-.442,3.993,3.993,0,0,1,.442-.4,4.653,4.653,0,0,1,.487-.4,2.024,2.024,0,0,1-.62-.31.614.614,0,0,1-.221-.442,1.289,1.289,0,0,1,.088-.4,2.43,2.43,0,0,1,.31-.4,1.6,1.6,0,0,1,.4-.354,1.636,1.636,0,0,1,.487-.221,3.045,3.045,0,0,1-1.018-.751,2.045,2.045,0,0,1-.354-1.105,2.013,2.013,0,0,1,.221-.884,2.245,2.245,0,0,1,.576-.708,2.494,2.494,0,0,1,.885-.486,3.06,3.06,0,0,1,1.107-.177h.531l.531.133a4.186,4.186,0,0,1,.4.133.706.706,0,0,1,.31.176Z" transform="translate(-20.531 -56.706)" fill="#007ea4"/><path d="M235.919-119.789h0c.133.044.31.088.487.133a2.154,2.154,0,0,0,.531.044,2.146,2.146,0,0,0,.8-.133,1.6,1.6,0,0,0,.531-.353,1.836,1.836,0,0,0,.355-.531,3.4,3.4,0,0,0,.088-.663,2.063,2.063,0,0,0-.133-.751,1.678,1.678,0,0,0-.4-.575,1.561,1.561,0,0,0-.575-.354,1.837,1.837,0,0,0-.708-.133h-.974Zm-1.373-3.936h2.568a4.818,4.818,0,0,1,1.2.178,2.826,2.826,0,0,1,.974.442,2.706,2.706,0,0,1,.664.751,1.761,1.761,0,0,1,.221.973,1.763,1.763,0,0,1-.221.973,1.769,1.769,0,0,1-.62.663,2.466,2.466,0,0,1-.841.4,3.692,3.692,0,0,1-.974.133h-.443a1.364,1.364,0,0,1-.442-.044.982.982,0,0,1-.4-.044.657.657,0,0,1-.31-.044v3.759h-1.373Z" transform="translate(-28.718 -55.476)" fill="#007ea4"/><path d="M248.741-117.984h0a4.212,4.212,0,0,0-.576.176l-.531.265a2.944,2.944,0,0,0-.531.265,3.822,3.822,0,0,0-.443.354,2.425,2.425,0,0,0-.31.4.713.713,0,0,0-.133.4,1.309,1.309,0,0,0,.089.442,2.463,2.463,0,0,0,.221.353.928.928,0,0,0,.354.265.836.836,0,0,0,.355.088,1.1,1.1,0,0,0,.4-.044l.4-.133a2.475,2.475,0,0,1,.354-.221,2.452,2.452,0,0,1,.354-.265Zm1.24,3.626h-1.24v-.841a3.1,3.1,0,0,0-.442.354,3.884,3.884,0,0,1-.443.31,2.222,2.222,0,0,1-.575.221,1.523,1.523,0,0,1-.664.088,3.491,3.491,0,0,1-.708-.088,1.963,1.963,0,0,1-.487-.354,1.145,1.145,0,0,1-.31-.487,1.411,1.411,0,0,1-.133-.619,1.454,1.454,0,0,1,.177-.752,2.517,2.517,0,0,1,.442-.575,3.145,3.145,0,0,1,.62-.442,6.178,6.178,0,0,1,.8-.353c.266-.088.576-.177.885-.265a5.9,5.9,0,0,1,.841-.221v-.4a3.521,3.521,0,0,0-.088-.753,1.038,1.038,0,0,0-.221-.442,1.047,1.047,0,0,0-.4-.265,1.651,1.651,0,0,0-.531-.088,1.6,1.6,0,0,0-.487.088.564.564,0,0,0-.31.221.713.713,0,0,0-.177.31c0,.088-.044.221-.044.354v.31a.629.629,0,0,1-.088.265.98.98,0,0,1-.221.176c-.044.044-.177.044-.31.044a.513.513,0,0,1-.442-.177.77.77,0,0,1-.177-.53.888.888,0,0,1,.177-.575,2.088,2.088,0,0,1,.576-.487,3.346,3.346,0,0,1,.8-.309,3.477,3.477,0,0,1,.974-.088,6.221,6.221,0,0,1,1.018.088,2.112,2.112,0,0,1,.709.353,1.208,1.208,0,0,1,.4.531,3,3,0,0,1,.088.664Z" transform="translate(-32.997 -56.706)" fill="#007ea4"/><path d="M256.311-120.638h1.239v1.193c.133-.176.265-.309.4-.486a3.934,3.934,0,0,1,.4-.442c.178-.088.31-.176.487-.265a.953.953,0,0,1,.487-.088,1.228,1.228,0,0,1,.4.044,1.109,1.109,0,0,1,.31.177.44.44,0,0,1,.177.221.373.373,0,0,1,.088.31.511.511,0,0,1-.177.442.949.949,0,0,1-.531.178c-.133,0-.266-.045-.354-.045-.088-.044-.133-.088-.221-.133-.044-.044-.133-.044-.221-.088-.044-.044-.133-.044-.265-.044a.768.768,0,0,0-.222.088.92.92,0,0,0-.266.177,1.36,1.36,0,0,0-.221.31l-.265.4v4.334h-1.239Z" transform="translate(-37.645 -56.706)" fill="#007ea4"/><path d="M267.319-116.569h0a2.051,2.051,0,0,1-.667.708,2.444,2.444,0,0,1-1.015.221,1.229,1.229,0,0,1-.579-.088,1.23,1.23,0,0,1-.354-.31.84.84,0,0,1-.219-.442,1.4,1.4,0,0,1-.088-.619v-4.422H263.29v-.31a1.745,1.745,0,0,0,.884-.176,1.479,1.479,0,0,0,.531-.531,1.776,1.776,0,0,0,.354-.707,7.6,7.6,0,0,0,.224-.929h.354v2.123h1.416v.53h-1.416v4.422a.593.593,0,0,0,.041.265.963.963,0,0,0,.136.221c.089.044.13.088.218.133a.561.561,0,0,0,.265.044.666.666,0,0,0,.4-.088.914.914,0,0,0,.307-.265Z" transform="translate(-40.507 -55.291)" fill="#007ea4"/><path d="M271.392-120.638h1.239v1.149a3.99,3.99,0,0,1,1.2-.928,2.454,2.454,0,0,1,1.239-.309,1.588,1.588,0,0,1,.62.133,1.416,1.416,0,0,1,.49.4,2.952,2.952,0,0,1,.354.619,1.952,1.952,0,0,1,.089.708v4.51h-1.245v-4.289a1.454,1.454,0,0,0-.265-.929.882.882,0,0,0-.708-.309,1.67,1.67,0,0,0-.442.044,4.3,4.3,0,0,1-.442.177,2.879,2.879,0,0,0-.443.31,1.783,1.783,0,0,0-.442.354v4.643h-1.239Z" transform="translate(-43.83 -56.706)" fill="#007ea4"/><path d="M286.545-118.6h0a1.779,1.779,0,0,0-.136-.663,1.543,1.543,0,0,0-.354-.531,1.53,1.53,0,0,0-.531-.354,1.4,1.4,0,0,0-.619-.133,1.182,1.182,0,0,0-.531.133,1.785,1.785,0,0,0-.442.354,1.63,1.63,0,0,0-.354.531,3.954,3.954,0,0,0-.177.663Zm-1.239,4.377h0a2.644,2.644,0,0,1-1.2-.221,4.035,4.035,0,0,1-1.015-.664,2.42,2.42,0,0,1-.619-.973,2.579,2.579,0,0,1-.266-1.15,4.842,4.842,0,0,1,.219-1.415,3.037,3.037,0,0,1,.619-1.105,3.051,3.051,0,0,1,.974-.707,3.042,3.042,0,0,1,1.286-.265,2.244,2.244,0,0,1,1.1.221,2.029,2.029,0,0,1,.885.575,2.242,2.242,0,0,1,.579.841,2.638,2.638,0,0,1,.218.973H283.4a3.457,3.457,0,0,0,.177,1.194,3.014,3.014,0,0,0,.442.928,3.145,3.145,0,0,0,.708.619,2.025,2.025,0,0,0,.885.221,2.5,2.5,0,0,0,.8-.133,2.359,2.359,0,0,0,.667-.353,1.97,1.97,0,0,0,.531-.487,3.924,3.924,0,0,0,.307-.575l.354.176a3.314,3.314,0,0,1-.442.885,5.58,5.58,0,0,1-.708.751,3.412,3.412,0,0,1-.885.487A2.307,2.307,0,0,1,285.306-114.226Z" transform="translate(-48.266 -56.706)" fill="#007ea4"/><path d="M294.434-120.638h1.239v1.193c.136-.176.265-.309.4-.486a2.047,2.047,0,0,1,.443-.442c.13-.088.307-.176.442-.265a1.125,1.125,0,0,1,.531-.088.869.869,0,0,1,.354.044.719.719,0,0,1,.307.177.558.558,0,0,1,.225.221.673.673,0,0,1,.088.31.536.536,0,0,1-.225.442.933.933,0,0,1-.531.178c-.13,0-.218-.045-.307-.045a1.067,1.067,0,0,1-.224-.133c-.089-.044-.178-.044-.219-.088a.561.561,0,0,0-.265-.044.636.636,0,0,0-.265.088.786.786,0,0,0-.224.177c-.088.089-.178.222-.266.31l-.265.4v4.334h-1.239Z" transform="translate(-53.281 -56.706)" fill="#007ea4"/><path d="M304.39-114.668h0a1.843,1.843,0,0,0,.49-.044.988.988,0,0,0,.354-.221,1.922,1.922,0,0,0,.265-.31.8.8,0,0,0,.041-.309.944.944,0,0,0-.13-.531,1.392,1.392,0,0,0-.354-.354,6.1,6.1,0,0,0-.579-.353c-.177-.088-.4-.177-.572-.265-.224-.088-.443-.221-.62-.31a6.124,6.124,0,0,1-.578-.4,3.918,3.918,0,0,1-.355-.53,1.685,1.685,0,0,1-.13-.707,2,2,0,0,1,.13-.708,1.816,1.816,0,0,1,.443-.531,1.778,1.778,0,0,1,.708-.353,2.417,2.417,0,0,1,.844-.133,2.33,2.33,0,0,1,.573.044,2.334,2.334,0,0,1,.531.133,3.721,3.721,0,0,1,.531.353,3.865,3.865,0,0,1,.531.619l-.442.4a2.057,2.057,0,0,0-.8-.841,1.552,1.552,0,0,0-.927-.31,1.628,1.628,0,0,0-.49.088.645.645,0,0,0-.4.177.468.468,0,0,0-.224.265.373.373,0,0,0-.088.309.894.894,0,0,0,.136.487,3.7,3.7,0,0,0,.443.4c.13.088.354.177.572.31l.667.265c.218.088.442.221.661.309a6.07,6.07,0,0,1,.579.4,5.015,5.015,0,0,1,.442.531,1.61,1.61,0,0,1,.13.663,2.06,2.06,0,0,1-.13.751,1.993,1.993,0,0,1-.442.619,2.055,2.055,0,0,1-.756.4,3.866,3.866,0,0,1-1.062.132,2.681,2.681,0,0,1-.572-.044,2.723,2.723,0,0,1-.579-.132,4.013,4.013,0,0,1-.572-.354,2.528,2.528,0,0,1-.579-.619l.49-.442a4.84,4.84,0,0,0,.442.53,1.683,1.683,0,0,0,.442.354,1.357,1.357,0,0,0,.443.221A1.628,1.628,0,0,0,304.39-114.668Z" transform="translate(-56.42 -56.706)" fill="#007ea4"/><path d="M312.734-111.806h0a.629.629,0,0,1,.265.088.251.251,0,0,1,.224.133.6.6,0,0,1,.13.177.53.53,0,0,1,.047.265.53.53,0,0,1-.047.265.6.6,0,0,1-.13.177.251.251,0,0,1-.224.132.629.629,0,0,1-.265.088.629.629,0,0,1-.265-.088.247.247,0,0,1-.177-.132.36.36,0,0,1-.178-.177c0-.088-.041-.177-.041-.265s.041-.177.041-.265a.36.36,0,0,1,.178-.177.247.247,0,0,1,.177-.133A.629.629,0,0,1,312.734-111.806Z" transform="translate(-60.515 -60.364)" fill="#007ea4"/><path d="M324.173-119.736h0a4.376,4.376,0,0,0,.265,1.548,3.213,3.213,0,0,0,.708,1.105,2.985,2.985,0,0,0,1.062.751,3.246,3.246,0,0,0,1.328.221,2.581,2.581,0,0,0,.844-.133,3.906,3.906,0,0,0,.708-.442,4.242,4.242,0,0,0,.62-.619,2.889,2.889,0,0,0,.442-.664l.572.354a9.446,9.446,0,0,1-.572.8,2.989,2.989,0,0,1-.8.664,4.375,4.375,0,0,1-1.021.487,5.622,5.622,0,0,1-1.281.176,4.755,4.755,0,0,1-1.818-.353,4,4,0,0,1-1.416-.929,4,4,0,0,1-.927-1.326,4.093,4.093,0,0,1-.313-1.636,4.463,4.463,0,0,1,.136-1.106,6.67,6.67,0,0,1,.443-1.016,4.173,4.173,0,0,1,.661-.884,3.561,3.561,0,0,1,.933-.664,4.134,4.134,0,0,1,1.1-.442,3.937,3.937,0,0,1,1.286-.177,4.822,4.822,0,0,1,1.192.177,3.37,3.37,0,0,1,.974.487,2.816,2.816,0,0,1,.8.664,2.744,2.744,0,0,1,.619.8l-.572.4a7.727,7.727,0,0,0-.531-.884,3.908,3.908,0,0,0-.619-.575,2.443,2.443,0,0,0-.667-.354,2.506,2.506,0,0,0-.8-.133,3.556,3.556,0,0,0-1.328.265,3.665,3.665,0,0,0-1.062.751,3.405,3.405,0,0,0-.708,1.15A4.2,4.2,0,0,0,324.173-119.736Z" transform="translate(-64.824 -55.352)" fill="#007ea4"/><path d="M338.788-120.638h1.239v1.193c.136-.176.265-.309.4-.486a3.927,3.927,0,0,1,.4-.442c.177-.088.313-.176.49-.265a.942.942,0,0,1,.484-.088,1.244,1.244,0,0,1,.4.044,1.1,1.1,0,0,1,.307.177.426.426,0,0,1,.177.221.609.609,0,0,1,.088.31.5.5,0,0,1-.177.442.933.933,0,0,1-.531.178c-.13,0-.266-.045-.354-.045-.088-.044-.13-.088-.218-.133-.047-.044-.136-.044-.224-.088-.041-.044-.13-.044-.265-.044a.782.782,0,0,0-.218.088.921.921,0,0,0-.266.177,1.476,1.476,0,0,0-.224.31l-.265.4v4.334h-1.239Z" transform="translate(-71.472 -56.706)" fill="#007ea4"/><path d="M350.739-118.6h0a1.779,1.779,0,0,0-.136-.663,1.569,1.569,0,0,0-.307-.531,3.691,3.691,0,0,0-.531-.354,1.586,1.586,0,0,0-.62-.133,1.228,1.228,0,0,0-.578.133,3.464,3.464,0,0,0-.443.354,1.63,1.63,0,0,0-.354.531,1.77,1.77,0,0,0-.13.663Zm-1.239,4.377h0a2.642,2.642,0,0,1-1.2-.221,3.778,3.778,0,0,1-.974-.664,3.133,3.133,0,0,1-.661-.973,2.545,2.545,0,0,1-.224-1.15,3.66,3.66,0,0,1,.224-1.415,2.946,2.946,0,0,1,.62-1.105,2.606,2.606,0,0,1,.973-.707,2.831,2.831,0,0,1,1.24-.265,2.438,2.438,0,0,1,1.151.221,2.349,2.349,0,0,1,.885.575,2.824,2.824,0,0,1,.579.841,2.575,2.575,0,0,1,.177.973h-4.65a4.938,4.938,0,0,0,.13,1.194,3.1,3.1,0,0,0,.49.928,2.209,2.209,0,0,0,.661.619,2.234,2.234,0,0,0,.933.221,2.044,2.044,0,0,0,.75-.133,3.656,3.656,0,0,0,.714-.353,2.442,2.442,0,0,0,.484-.487,1.268,1.268,0,0,0,.313-.575l.354.176a2.427,2.427,0,0,1-.442.885,3.539,3.539,0,0,1-.667.751,4.547,4.547,0,0,1-.885.487A2.552,2.552,0,0,1,349.5-114.226Z" transform="translate(-74.611 -56.706)" fill="#007ea4"/><path d="M361.767-117.984h0a4.033,4.033,0,0,0-.572.176c-.177.088-.354.177-.579.265l-.531.265c-.13.133-.307.221-.4.354a1.226,1.226,0,0,0-.313.4.709.709,0,0,0-.13.4,1.241,1.241,0,0,0,.088.442.919.919,0,0,0,.218.353.836.836,0,0,0,.313.265,1.275,1.275,0,0,0,.4.088,1.243,1.243,0,0,0,.4-.044,3.232,3.232,0,0,0,.354-.133c.13-.088.265-.133.4-.221a2.627,2.627,0,0,1,.354-.265Zm1.24,3.626h-1.24v-.841a1.784,1.784,0,0,0-.442.354c-.13.088-.307.221-.442.31a2.255,2.255,0,0,1-.573.221,1.737,1.737,0,0,1-.708.088,3.488,3.488,0,0,1-.667-.088,1.907,1.907,0,0,1-.484-.354,1.893,1.893,0,0,1-.354-.487,2.462,2.462,0,0,1-.089-.619,1.425,1.425,0,0,1,.177-.752,1.639,1.639,0,0,1,.443-.575,3.057,3.057,0,0,1,.619-.442,6.183,6.183,0,0,1,.8-.353c.265-.088.572-.177.838-.265a6.688,6.688,0,0,1,.885-.221v-.4a3.341,3.341,0,0,0-.088-.753.725.725,0,0,0-.265-.442.677.677,0,0,0-.354-.265,2.226,2.226,0,0,0-.531-.088,1.348,1.348,0,0,0-.484.088.573.573,0,0,0-.313.221.738.738,0,0,0-.178.31c0,.088-.041.221-.041.354v.31c-.047.088-.047.177-.136.265a.633.633,0,0,1-.177.176.649.649,0,0,1-.307.044.514.514,0,0,1-.443-.177.8.8,0,0,1-.224-.53.917.917,0,0,1,.224-.575,1.818,1.818,0,0,1,.531-.487,4.8,4.8,0,0,1,.838-.309,3.483,3.483,0,0,1,.974-.088,6.221,6.221,0,0,1,1.02.088,2.639,2.639,0,0,1,.708.353.894.894,0,0,1,.354.531,1.614,1.614,0,0,1,.13.664Z" transform="translate(-79.355 -56.706)" fill="#007ea4"/><path d="M372.2-116.569h0a2.051,2.051,0,0,1-.667.708,2.3,2.3,0,0,1-1.015.221,1.229,1.229,0,0,1-.579-.088,1.23,1.23,0,0,1-.354-.31,1.32,1.32,0,0,1-.218-.442,2.438,2.438,0,0,1-.089-.619v-4.422h-1.062v-.31a1.673,1.673,0,0,0,.838-.176,2.133,2.133,0,0,0,.579-.531,1.721,1.721,0,0,0,.307-.707,7.586,7.586,0,0,0,.224-.929h.355v2.123h1.416v.53h-1.416v4.422c0,.088.041.177.041.265a.458.458,0,0,0,.177.221c.047.044.136.088.177.133a.561.561,0,0,0,.265.044c.177,0,.313,0,.4-.088a.919.919,0,0,0,.307-.265Z" transform="translate(-83.541 -55.291)" fill="#007ea4"/><path d="M376.257-122.525h0l.885-.353h.354v6.368h-1.239Zm.619-3.449h0a.563.563,0,0,1,.266.044.88.88,0,0,1,.218.133.427.427,0,0,1,.177.221c.047.044.047.133.047.221a.527.527,0,0,1-.047.265.625.625,0,0,1-.177.177.88.88,0,0,1-.218.133.563.563,0,0,1-.266.044.561.561,0,0,1-.265-.044,1.068,1.068,0,0,1-.224-.133c-.089-.044-.13-.133-.177-.177a.6.6,0,0,1-.041-.265.351.351,0,0,1,.041-.221.458.458,0,0,1,.177-.221,1.068,1.068,0,0,1,.224-.133A.561.561,0,0,1,376.876-125.974Z" transform="translate(-86.803 -54.553)" fill="#007ea4"/><path d="M381.126-120.576h0l2.213,4.776,2.125-4.776h.573l-2.833,6.367h-.443l-2.921-6.367Z" transform="translate(-88.309 -56.767)" fill="#007ea4"/><path d="M395.473-118.6h0a1.78,1.78,0,0,0-.136-.663,1.061,1.061,0,0,0-.307-.531,3.691,3.691,0,0,0-.531-.354,1.425,1.425,0,0,0-.62-.133,1.178,1.178,0,0,0-.531.133,2.042,2.042,0,0,0-.49.354,1.568,1.568,0,0,0-.307.531,1.855,1.855,0,0,0-.177.663Zm-1.239,4.377h0a2.886,2.886,0,0,1-1.2-.221,3.783,3.783,0,0,1-.973-.664,3.146,3.146,0,0,1-.667-.973,3.388,3.388,0,0,1-.218-1.15,3.659,3.659,0,0,1,.218-1.415,3.035,3.035,0,0,1,.619-1.105,2.684,2.684,0,0,1,.98-.707,2.831,2.831,0,0,1,1.24-.265,2.438,2.438,0,0,1,1.151.221,2.349,2.349,0,0,1,.885.575,2.809,2.809,0,0,1,.573.841,2.536,2.536,0,0,1,.224.973h-4.692a3.323,3.323,0,0,0,.177,1.194,2.229,2.229,0,0,0,.442.928,1.918,1.918,0,0,0,.708.619,1.873,1.873,0,0,0,.885.221,2.045,2.045,0,0,0,.75-.133,3.449,3.449,0,0,0,.708-.353,2.657,2.657,0,0,0,.49-.487,1.2,1.2,0,0,0,.307-.575l.354.176a2.338,2.338,0,0,1-.442.885,3.524,3.524,0,0,1-.661.751,3.5,3.5,0,0,1-.885.487A2.552,2.552,0,0,1,394.233-114.226Z" transform="translate(-92.959 -56.706)" fill="#007ea4"/><path d="M411.525-116.021h0a2.564,2.564,0,0,0,.572-.088.989.989,0,0,0,.531-.265,1.174,1.174,0,0,0,.4-.4.94.94,0,0,0,.13-.53,1.1,1.1,0,0,0-.218-.664,1.751,1.751,0,0,0-.49-.53,3.749,3.749,0,0,0-.708-.442,5.133,5.133,0,0,0-.838-.442c-.265-.133-.531-.31-.8-.442a4.911,4.911,0,0,1-.708-.53,1.9,1.9,0,0,1-.531-.664,1.487,1.487,0,0,1-.177-.8,1.937,1.937,0,0,1,.177-.884,1.881,1.881,0,0,1,.484-.708,2.56,2.56,0,0,1,.844-.442,4.483,4.483,0,0,1,1.151-.177,3.734,3.734,0,0,1,1.015.133,3.214,3.214,0,0,1,.8.354,1.931,1.931,0,0,1,.579.619,2.239,2.239,0,0,1,.4.8l-.708.31a2.394,2.394,0,0,0-.307-.664,1.82,1.82,0,0,0-.442-.53,1.763,1.763,0,0,0-.62-.354,2.166,2.166,0,0,0-.8-.133,1.79,1.79,0,0,0-.667.133,1.035,1.035,0,0,0-.484.265.759.759,0,0,0-.265.4.725.725,0,0,0-.088.442.87.87,0,0,0,.177.575,2.822,2.822,0,0,0,.531.531,5.654,5.654,0,0,0,.749.442c.266.133.531.31.844.442.265.133.531.309.838.486a2.663,2.663,0,0,1,.708.531,2.215,2.215,0,0,1,.531.619,1.5,1.5,0,0,1,.224.8,1.976,1.976,0,0,1-.224.885,1.481,1.481,0,0,1-.531.751,2.087,2.087,0,0,1-.927.487,3.474,3.474,0,0,1-1.239.221,3.842,3.842,0,0,1-1.062-.133,2.894,2.894,0,0,1-.844-.4,3.669,3.669,0,0,1-.573-.575,4.8,4.8,0,0,1-.442-.84l.75-.265a3.69,3.69,0,0,0,.354.708,5.8,5.8,0,0,0,.49.53,4.469,4.469,0,0,0,.661.31A2.1,2.1,0,0,0,411.525-116.021Z" transform="translate(-100.07 -55.352)" fill="#007ea4"/><path d="M423.612-114.668h0a1.453,1.453,0,0,0,.661-.177,1.477,1.477,0,0,0,.531-.531,1.961,1.961,0,0,0,.355-.751,2.849,2.849,0,0,0,.136-.884,6,6,0,0,0-.136-1.282,4.345,4.345,0,0,0-.355-1.017,2.163,2.163,0,0,0-.708-.708,1.831,1.831,0,0,0-1.015-.265,1.434,1.434,0,0,0-.62.177,5.3,5.3,0,0,0-.531.487,3.739,3.739,0,0,0-.354.752,2.828,2.828,0,0,0-.136.884,3.977,3.977,0,0,0,.178,1.282,3.786,3.786,0,0,0,.4,1.061,2.04,2.04,0,0,0,.661.707A1.645,1.645,0,0,0,423.612-114.668Zm-.224.442h0a4.2,4.2,0,0,1-1.328-.221,3.011,3.011,0,0,1-1.062-.708,2.849,2.849,0,0,1-.708-1.017,3.915,3.915,0,0,1-.218-1.238,4.193,4.193,0,0,1,.218-1.282,3.5,3.5,0,0,1,.708-1.061,2.512,2.512,0,0,1,1.062-.707,3.255,3.255,0,0,1,1.328-.265,3.49,3.49,0,0,1,1.328.221,3.34,3.34,0,0,1,1.021.663,3.09,3.09,0,0,1,.708.973,2.914,2.914,0,0,1,.265,1.193,3.6,3.6,0,0,1-.265,1.371,3.467,3.467,0,0,1-.708,1.061,2.891,2.891,0,0,1-1.021.752A3.55,3.55,0,0,1,423.388-114.226Z" transform="translate(-104.81 -56.706)" fill="#007ea4"/><path d="M434.668-116.511h-1.239v-9.109l.885-.354h.354Z" transform="translate(-110.288 -54.553)" fill="#007ea4"/><path d="M439.32-120.576h0v4.466a.749.749,0,0,0,.136.442,1.224,1.224,0,0,0,.307.353.793.793,0,0,0,.4.265,2.238,2.238,0,0,0,.572.088,2.278,2.278,0,0,0,.4-.088,1.775,1.775,0,0,0,.4-.221,1.155,1.155,0,0,0,.354-.309,2.337,2.337,0,0,0,.313-.4v-4.6h1.239v6.279H442.2v-1.15a2.092,2.092,0,0,1-.4.486,4.685,4.685,0,0,1-.531.442c-.219.088-.4.177-.62.265a1.3,1.3,0,0,1-.572.088,2.108,2.108,0,0,1-.756-.132,1.741,1.741,0,0,1-.661-.442,1.505,1.505,0,0,1-.4-.619,1.48,1.48,0,0,1-.177-.751v-4.466Z" transform="translate(-112.196 -56.767)" fill="#007ea4"/><path d="M452.541-116.569h0a2.036,2.036,0,0,1-.661.708,2.472,2.472,0,0,1-1.021.221,1.215,1.215,0,0,1-.572-.088,2.444,2.444,0,0,1-.4-.31,4.237,4.237,0,0,1-.219-.442,2.553,2.553,0,0,1-.047-.619v-4.422h-1.1v-.31a1.763,1.763,0,0,0,.885-.176,1.578,1.578,0,0,0,.531-.531,1.776,1.776,0,0,0,.354-.707c.088-.31.13-.619.218-.929h.354v2.123h1.417v.53h-1.417v4.422a.521.521,0,0,0,.048.265.971.971,0,0,0,.13.221c.088.044.136.088.224.133a.561.561,0,0,0,.265.044.649.649,0,0,0,.4-.088c.089-.088.225-.133.313-.265Z" transform="translate(-116.476 -55.291)" fill="#007ea4"/><path d="M456.63-122.525h0l.885-.353h.354v6.368H456.63Zm.619-3.449h0a.565.565,0,0,1,.266.044,1.07,1.07,0,0,1,.224.133.458.458,0,0,1,.177.221,2.038,2.038,0,0,1,.041.221c0,.088-.041.176-.041.265-.047.044-.089.133-.177.177a1.07,1.07,0,0,1-.224.133.565.565,0,0,1-.266.044.484.484,0,0,1-.265-.044l-.265-.133c-.041-.044-.088-.133-.13-.177a.527.527,0,0,1-.047-.265c0-.088,0-.177.047-.221a.971.971,0,0,1,.13-.221l.265-.133A.484.484,0,0,1,457.249-125.974Z" transform="translate(-119.767 -54.553)" fill="#007ea4"/><path d="M464.481-114.668h0a1.842,1.842,0,0,0,.661-.177,3.23,3.23,0,0,0,.537-.531,1.919,1.919,0,0,0,.307-.751,2.85,2.85,0,0,0,.136-.884,12.451,12.451,0,0,0-.089-1.282,3.052,3.052,0,0,0-.4-1.017,2.054,2.054,0,0,0-.667-.708,2.09,2.09,0,0,0-1.062-.265,1.431,1.431,0,0,0-.573.177,1.808,1.808,0,0,0-.531.487,3.739,3.739,0,0,0-.355.752,2.847,2.847,0,0,0-.136.884,5.709,5.709,0,0,0,.136,1.282,3.835,3.835,0,0,0,.443,1.061,2.045,2.045,0,0,0,.661.707A1.649,1.649,0,0,0,464.481-114.668Zm-.265.442h0a4.147,4.147,0,0,1-1.328-.221,3.36,3.36,0,0,1-1.062-.708,3.381,3.381,0,0,1-.667-1.017,2.966,2.966,0,0,1-.265-1.238,3.171,3.171,0,0,1,.265-1.282,4.313,4.313,0,0,1,.667-1.061,2.746,2.746,0,0,1,1.062-.707,3.215,3.215,0,0,1,1.328-.265,3.243,3.243,0,0,1,1.328.221,4.176,4.176,0,0,1,1.062.663,2.977,2.977,0,0,1,.667.973,2.915,2.915,0,0,1,.265,1.193,3.6,3.6,0,0,1-.265,1.371,3.358,3.358,0,0,1-.667,1.061,3.491,3.491,0,0,1-1.062.752A3.255,3.255,0,0,1,464.216-114.226Z" transform="translate(-121.552 -56.706)" fill="#007ea4"/><path d="M474.18-120.638h1.239v1.149a5.516,5.516,0,0,1,1.2-.928,2.456,2.456,0,0,1,1.239-.309,1.423,1.423,0,0,1,.62.133,1.347,1.347,0,0,1,.484.4,1.731,1.731,0,0,1,.354.619,2.015,2.015,0,0,1,.136.708v4.51h-1.239v-4.289a1.46,1.46,0,0,0-.313-.929.823.823,0,0,0-.708-.309,1.212,1.212,0,0,0-.4.044c-.177.044-.313.133-.49.177a2.875,2.875,0,0,0-.442.31,3.423,3.423,0,0,0-.443.354v4.643H474.18Z" transform="translate(-127.002 -56.706)" fill="#007ea4"/><path d="M487.288-114.668h0a1.689,1.689,0,0,0,.49-.044.99.99,0,0,0,.354-.221.623.623,0,0,0,.265-.31.878.878,0,0,0,.088-.309.943.943,0,0,0-.136-.531,1.035,1.035,0,0,0-.4-.354c-.178-.133-.354-.221-.531-.353-.224-.088-.4-.177-.619-.265s-.4-.221-.62-.31a2.6,2.6,0,0,1-.531-.4,2.084,2.084,0,0,1-.4-.53,1.686,1.686,0,0,1-.13-.707,1.37,1.37,0,0,1,.177-.708,1.018,1.018,0,0,1,.443-.531,1.582,1.582,0,0,1,.661-.353,2.584,2.584,0,0,1,.844-.133,2.949,2.949,0,0,1,.619.044,2.331,2.331,0,0,1,.531.133,3.353,3.353,0,0,1,.484.353c.178.177.354.354.579.619l-.49.4a2.056,2.056,0,0,0-.8-.841,1.383,1.383,0,0,0-.927-.31,1.636,1.636,0,0,0-.49.088.553.553,0,0,0-.354.177.411.411,0,0,0-.266.265.673.673,0,0,0-.089.309.678.678,0,0,0,.177.487,1.708,1.708,0,0,0,.4.4c.178.088.355.177.573.31l.667.265c.219.088.443.221.661.309a7.2,7.2,0,0,1,.62.4,3.929,3.929,0,0,1,.4.531,1.634,1.634,0,0,1,.177.663,2.078,2.078,0,0,1-.177.751,1.493,1.493,0,0,1-.442.619,1.74,1.74,0,0,1-.756.4,3.869,3.869,0,0,1-1.062.132,2.161,2.161,0,0,1-.531-.044,3.189,3.189,0,0,1-.619-.132c-.177-.088-.354-.221-.573-.354a3.959,3.959,0,0,1-.578-.619l.49-.442c.177.177.307.4.443.53.177.133.307.265.442.354a1.93,1.93,0,0,0,.443.221A1.793,1.793,0,0,0,487.288-114.668Z" transform="translate(-131.434 -56.706)" fill="#007ea4"/><path d="M495.708-111.806h0a.629.629,0,0,1,.265.088.247.247,0,0,1,.177.133.357.357,0,0,1,.177.177c0,.088.041.177.041.265s-.041.177-.041.265a.357.357,0,0,1-.177.177.247.247,0,0,1-.177.132.629.629,0,0,1-.265.088.629.629,0,0,1-.266-.088.252.252,0,0,1-.225-.132.611.611,0,0,1-.13-.177.531.531,0,0,1-.047-.265.531.531,0,0,1,.047-.265.61.61,0,0,1,.13-.177.252.252,0,0,1,.225-.133A.629.629,0,0,1,495.708-111.806Z" transform="translate(-135.558 -60.364)" fill="#007ea4"/><path d="M507.452-116.164h1.458a3.849,3.849,0,0,0,1.062-.133,2.622,2.622,0,0,0,.708-.31,1.523,1.523,0,0,0,.443-.486,1.414,1.414,0,0,0,.136-.619,2.066,2.066,0,0,0-.136-.751,1.675,1.675,0,0,0-.4-.575,2.662,2.662,0,0,0-.708-.353,4.242,4.242,0,0,0-1.11-.133h-1.458Zm0-3.891h1.724a1.927,1.927,0,0,0,.756-.133,1.088,1.088,0,0,0,.531-.31,2.069,2.069,0,0,0,.354-.487,2.77,2.77,0,0,0,.088-.619,1.413,1.413,0,0,0-.136-.619,1.2,1.2,0,0,0-.4-.53,2.977,2.977,0,0,0-.756-.31,6.207,6.207,0,0,0-1.015-.088h-1.151Zm-1.375-3.671h3.276a4.842,4.842,0,0,1,1.2.178,2.935,2.935,0,0,1,.927.4,2.043,2.043,0,0,1,.62.619,1.8,1.8,0,0,1,.224.841,2.379,2.379,0,0,1-.089.575,1.711,1.711,0,0,1-.224.486,3.922,3.922,0,0,1-.443.443,5.737,5.737,0,0,1-.75.4,2.149,2.149,0,0,1,.8.265,1.888,1.888,0,0,1,.62.4,2.926,2.926,0,0,1,.354.619,1.907,1.907,0,0,1,.13.751,1.876,1.876,0,0,1-.177.841,2.871,2.871,0,0,1-.573.707,3.36,3.36,0,0,1-.885.442,3.413,3.413,0,0,1-1.2.177h-3.807Z" transform="translate(-140.084 -55.476)" fill="#007ea4"/><path d="M522.9-118.6h0a1.77,1.77,0,0,0-.13-.663,1.064,1.064,0,0,0-.313-.531,3.694,3.694,0,0,0-.531-.354,1.543,1.543,0,0,0-.62-.133.957.957,0,0,0-.531.133,1.9,1.9,0,0,0-.484.354,1.063,1.063,0,0,0-.313.531,1.855,1.855,0,0,0-.177.663Zm-1.239,4.377h0a2.855,2.855,0,0,1-1.192-.221,3.778,3.778,0,0,1-.974-.664,3.147,3.147,0,0,1-.667-.973,2.541,2.541,0,0,1-.218-1.15,3.66,3.66,0,0,1,.218-1.415,3.027,3.027,0,0,1,.62-1.105,2.654,2.654,0,0,1,.973-.707,2.831,2.831,0,0,1,1.24-.265,2.437,2.437,0,0,1,1.151.221,2.348,2.348,0,0,1,.885.575,2.825,2.825,0,0,1,.579.841,2.575,2.575,0,0,1,.177.973h-4.65a4.925,4.925,0,0,0,.136,1.194,3.088,3.088,0,0,0,.484.928,1.966,1.966,0,0,0,.708.619,1.873,1.873,0,0,0,.885.221,2.1,2.1,0,0,0,.756-.133,3.608,3.608,0,0,0,.708-.353,2.439,2.439,0,0,0,.484-.487,1.27,1.27,0,0,0,.313-.575l.354.176a2.426,2.426,0,0,1-.442.885,3.54,3.54,0,0,1-.667.751,3.4,3.4,0,0,1-.885.487A2.513,2.513,0,0,1,521.665-114.226Z" transform="translate(-145.226 -56.706)" fill="#007ea4"/><path d="M533.7-116.569h0a2.057,2.057,0,0,1-.667.708,2.306,2.306,0,0,1-1.015.221.956.956,0,0,1-.532-.088.974.974,0,0,1-.4-.31,1.322,1.322,0,0,1-.218-.442,2.468,2.468,0,0,1-.089-.619v-4.422H529.72v-.31a1.568,1.568,0,0,0,.838-.176,1.665,1.665,0,0,0,.578-.531,2.727,2.727,0,0,0,.354-.707c.041-.31.13-.619.178-.929h.354v2.123h1.416v.53h-1.416v4.422a.586.586,0,0,0,.088.265.241.241,0,0,0,.13.221,1.07,1.07,0,0,0,.224.133c.041.044.177.044.265.044a.481.481,0,0,0,.354-.088.919.919,0,0,0,.307-.265Z" transform="translate(-149.781 -55.291)" fill="#007ea4"/><path d="M540.648-116.569h0a2.036,2.036,0,0,1-.661.708,2.472,2.472,0,0,1-1.02.221,1.216,1.216,0,0,1-.573-.088,1.158,1.158,0,0,1-.354-.31,1.415,1.415,0,0,1-.265-.442,2.524,2.524,0,0,1-.048-.619v-4.422h-1.1v-.31a1.762,1.762,0,0,0,.885-.176,1.577,1.577,0,0,0,.531-.531,1.776,1.776,0,0,0,.354-.707c.089-.31.13-.619.218-.929h.354v2.123h1.416v.53h-1.416v4.422a.526.526,0,0,0,.047.265.969.969,0,0,0,.13.221c.088.044.136.088.224.133a.561.561,0,0,0,.266.044.651.651,0,0,0,.4-.088c.088-.088.224-.133.313-.265Z" transform="translate(-152.612 -55.291)" fill="#007ea4"/><path d="M548.541-118.6h0a1.778,1.778,0,0,0-.136-.663,1.542,1.542,0,0,0-.354-.531,1.532,1.532,0,0,0-.531-.354,1.408,1.408,0,0,0-.62-.133,1.182,1.182,0,0,0-.532.133,3.352,3.352,0,0,0-.484.354,1.484,1.484,0,0,0-.313.531,3.96,3.96,0,0,0-.177.663Zm-1.239,4.377h0a2.939,2.939,0,0,1-1.239-.221,4.676,4.676,0,0,1-.974-.664,2.5,2.5,0,0,1-.625-.973,2.579,2.579,0,0,1-.265-1.15,4.652,4.652,0,0,1,.224-1.415,2.953,2.953,0,0,1,.619-1.105,3.057,3.057,0,0,1,.974-.707,3.043,3.043,0,0,1,1.286-.265,2.244,2.244,0,0,1,1.1.221,2.029,2.029,0,0,1,.885.575,2.235,2.235,0,0,1,.579.841,2.639,2.639,0,0,1,.218.973H545.4a3.458,3.458,0,0,0,.177,1.194,3.018,3.018,0,0,0,.442.928,3.145,3.145,0,0,0,.708.619,2.024,2.024,0,0,0,.885.221,2.5,2.5,0,0,0,.8-.133,4.825,4.825,0,0,0,.667-.353,1.969,1.969,0,0,0,.531-.487,3.873,3.873,0,0,0,.307-.575l.354.176a3.316,3.316,0,0,1-.443.885,5.574,5.574,0,0,1-.708.751,3.413,3.413,0,0,1-.885.487A2.307,2.307,0,0,1,547.3-114.226Z" transform="translate(-155.719 -56.706)" fill="#007ea4"/><path d="M556.434-120.638h1.239v1.193c.136-.176.265-.309.4-.486a2.034,2.034,0,0,1,.442-.442c.13-.088.307-.176.442-.265a1.034,1.034,0,0,1,.484-.088,1.123,1.123,0,0,1,.4.044.719.719,0,0,1,.307.177.554.554,0,0,1,.225.221.7.7,0,0,1,.041.31.5.5,0,0,1-.177.442.936.936,0,0,1-.531.178,2.39,2.39,0,0,1-.307-.045l-.266-.133c-.047-.044-.136-.044-.177-.088a.561.561,0,0,0-.266-.044.636.636,0,0,0-.265.088.463.463,0,0,0-.224.177c-.088.089-.178.222-.266.31l-.265.4v4.334h-1.239Z" transform="translate(-160.738 -56.706)" fill="#007ea4"/><path d="M570.992-123.725h1.375v7.606h4.114v.531h-5.489Z" transform="translate(-166.708 -55.475)" fill="#007ea4"/><path d="M581.737-122.525h0l.891-.353h.355v6.368h-1.245Zm.619-3.449h0a.573.573,0,0,1,.271.044.884.884,0,0,1,.219.133.427.427,0,0,1,.177.221c.047.044.047.133.047.221a.527.527,0,0,1-.047.265.626.626,0,0,1-.177.177.884.884,0,0,1-.219.133.573.573,0,0,1-.271.044.561.561,0,0,1-.265-.044.878.878,0,0,1-.218-.133.623.623,0,0,1-.177-.177.528.528,0,0,1-.047-.265c0-.088,0-.177.047-.221a.426.426,0,0,1,.177-.221.878.878,0,0,1,.218-.133A.561.561,0,0,1,582.356-125.974Z" transform="translate(-171.079 -54.553)" fill="#007ea4"/><path d="M586.587-120.576h0L588.8-115.8l2.125-4.776h.573l-2.833,6.367h-.443l-2.963-6.367Z" transform="translate(-172.56 -56.767)" fill="#007ea4"/><path d="M600.923-118.6h0a1.769,1.769,0,0,0-.13-.663,1.125,1.125,0,0,0-.354-.531,2.036,2.036,0,0,0-.49-.354,1.545,1.545,0,0,0-.62-.133,1.221,1.221,0,0,0-.572.133,2.775,2.775,0,0,0-.443.354,1.543,1.543,0,0,0-.354.531,1.78,1.78,0,0,0-.136.663Zm-1.239,4.377h0a2.619,2.619,0,0,1-1.192-.221,3.127,3.127,0,0,1-.974-.664,3.154,3.154,0,0,1-.666-.973,2.578,2.578,0,0,1-.266-1.15,4.652,4.652,0,0,1,.224-1.415,3.858,3.858,0,0,1,.661-1.105,2.663,2.663,0,0,1,.974-.707,2.829,2.829,0,0,1,1.239-.265,2.435,2.435,0,0,1,1.151.221,2.347,2.347,0,0,1,.885.575,2.838,2.838,0,0,1,.579.841,2.575,2.575,0,0,1,.177.973h-4.65a4.928,4.928,0,0,0,.136,1.194,3.09,3.09,0,0,0,.484.928,2.223,2.223,0,0,0,.667.619,2.185,2.185,0,0,0,.927.221,2.094,2.094,0,0,0,.755-.133,3.6,3.6,0,0,0,.708-.353,2.44,2.44,0,0,0,.484-.487,1.843,1.843,0,0,0,.313-.575l.354.176a2.425,2.425,0,0,1-.442.885,3.8,3.8,0,0,1-.708.751,3.176,3.176,0,0,1-.844.487A2.514,2.514,0,0,1,599.684-114.226Z" transform="translate(-177.205 -56.706)" fill="#007ea4"/><path d="M610.674-114.668h0a1.372,1.372,0,0,0,.442-.044.847.847,0,0,0,.4-.221.833.833,0,0,0,.224-.31.421.421,0,0,0,.088-.309.943.943,0,0,0-.136-.531,1.033,1.033,0,0,0-.4-.354,2.918,2.918,0,0,0-.531-.353c-.177-.088-.4-.177-.62-.265-.177-.088-.4-.221-.619-.31l-.531-.4a3.415,3.415,0,0,1-.354-.53,1.183,1.183,0,0,1-.177-.707,2.079,2.079,0,0,1,.177-.708,1.3,1.3,0,0,1,.442-.531,1.589,1.589,0,0,1,.661-.353,2.87,2.87,0,0,1,.885-.133,2.35,2.35,0,0,1,.578.044,2.333,2.333,0,0,1,.531.133,3.693,3.693,0,0,1,.531.353,3.869,3.869,0,0,1,.531.619l-.443.4a2.927,2.927,0,0,0-.8-.841,1.57,1.57,0,0,0-.933-.31,1.562,1.562,0,0,0-.484.088.568.568,0,0,0-.4.177.752.752,0,0,0-.265.265.673.673,0,0,0-.089.309.928.928,0,0,0,.177.487,3.2,3.2,0,0,0,.4.4c.177.088.4.177.62.31l.661.265c.225.088.443.221.667.309.218.133.4.265.573.4a2.1,2.1,0,0,1,.4.531,1.172,1.172,0,0,1,.177.663,2.061,2.061,0,0,1-.136.751,2.134,2.134,0,0,1-.484.619,1.844,1.844,0,0,1-.708.4,3.931,3.931,0,0,1-1.062.132,2.555,2.555,0,0,1-.579-.044,2.673,2.673,0,0,1-.572-.132,2.485,2.485,0,0,1-.579-.354,2.634,2.634,0,0,1-.572-.619l.484-.442a6.537,6.537,0,0,0,.443.53,2.877,2.877,0,0,0,.4.354,2.347,2.347,0,0,0,.484.221A1.7,1.7,0,0,0,610.674-114.668Z" transform="translate(-182.039 -56.706)" fill="#007ea4"/><path d="M619.014-111.806h0a.629.629,0,0,1,.265.088c.089,0,.13.044.218.133a.612.612,0,0,1,.136.177.6.6,0,0,1,.041.265.6.6,0,0,1-.041.265.612.612,0,0,1-.136.177c-.089.088-.13.132-.218.132a.629.629,0,0,1-.265.088.629.629,0,0,1-.266-.088c-.089,0-.136-.044-.225-.132a.61.61,0,0,1-.13-.177.529.529,0,0,1-.047-.265.529.529,0,0,1,.047-.265.609.609,0,0,1,.13-.177c.089-.088.136-.133.225-.133A.629.629,0,0,1,619.014-111.806Z" transform="translate(-186.13 -60.364)" fill="#007ea4"/><path d="M188.579-174.233h12.4L194.821-186.3Zm8.455-19.057h0l15.893,31.261h-5.755l-5.18-10.214H187.561l-5.312,10.214H179.46l16.158-31.261Z" transform="translate(-6.125 -26.944)" fill="#007ea4"/><path d="M261.21-181.168h0a5.862,5.862,0,0,0-.573-2.52,6.282,6.282,0,0,0-1.5-1.99,6.209,6.209,0,0,0-2.083-1.238,6.115,6.115,0,0,0-2.344-.442,6.4,6.4,0,0,0-2.878.663,7.715,7.715,0,0,0-2.346,1.99,9.451,9.451,0,0,0-1.594,2.963,12.984,12.984,0,0,0-.576,3.846,13.023,13.023,0,0,0,.665,4.2,11.989,11.989,0,0,0,1.726,3.45,8.606,8.606,0,0,0,2.612,2.3,6.6,6.6,0,0,0,3.188.841,6.924,6.924,0,0,0,1.635-.221,9.362,9.362,0,0,0,1.552-.531,10.012,10.012,0,0,0,1.37-.752,13.084,13.084,0,0,0,1.151-.928Zm0,13.751h0a14.353,14.353,0,0,1-1.948,1.194,13.273,13.273,0,0,1-2.166.884,14.224,14.224,0,0,1-2.259.575,13.642,13.642,0,0,1-2.257.177,9.549,9.549,0,0,1-4.294-.973,10.476,10.476,0,0,1-3.453-2.609,11.463,11.463,0,0,1-2.346-3.8,12.32,12.32,0,0,1-.885-4.6,10.819,10.819,0,0,1,.487-3.14,15.009,15.009,0,0,1,1.373-2.962,14.84,14.84,0,0,1,2.169-2.564,14.054,14.054,0,0,1,2.789-2.034,15.135,15.135,0,0,1,3.231-1.371,13.832,13.832,0,0,1,3.628-.487,8.3,8.3,0,0,1,3.275.62,9.017,9.017,0,0,1,2.656,1.591v-12.47l3.588-1.327h1.5v36.126H261.21Z" transform="translate(-31.612 -23.9)" fill="#007ea4"/><path d="M296.382-180.247h0l9.207,17.82,8.811-17.82h2.349l-11.691,23.833h-1.812l-12.264-23.833Z" transform="translate(-51.865 -32.293)" fill="#007ea4"/><path d="M355.064-158.255h0a5.944,5.944,0,0,0,2.791-.707,6.653,6.653,0,0,0,2.213-1.946,10.389,10.389,0,0,0,1.417-2.786,10.685,10.685,0,0,0,.531-3.36,22.759,22.759,0,0,0-.49-4.775,12.654,12.654,0,0,0-1.594-3.936,7.641,7.641,0,0,0-2.833-2.609,8.882,8.882,0,0,0-4.249-.928,5.114,5.114,0,0,0-2.52.663,8.569,8.569,0,0,0-2.131,1.857,10.992,10.992,0,0,0-1.505,2.742,10.684,10.684,0,0,0-.531,3.36,17.247,17.247,0,0,0,.619,4.864,12.8,12.8,0,0,0,1.729,3.936,8.869,8.869,0,0,0,2.791,2.653A7.676,7.676,0,0,0,355.064-158.255Zm-.974,1.724h0a15.733,15.733,0,0,1-5.489-.928,13.544,13.544,0,0,1-4.338-2.565,12.2,12.2,0,0,1-2.88-3.847,11.148,11.148,0,0,1-1.015-4.643,12.394,12.394,0,0,1,1.015-4.908,12.736,12.736,0,0,1,2.88-3.979,13.056,13.056,0,0,1,4.338-2.7,14.774,14.774,0,0,1,5.489-.973,16.785,16.785,0,0,1,5.489.885,15.391,15.391,0,0,1,4.338,2.476A12.321,12.321,0,0,1,366.8-174a10.552,10.552,0,0,1,1.015,4.51,13.04,13.04,0,0,1-1.015,5.041,14.023,14.023,0,0,1-2.88,4.112,13.467,13.467,0,0,1-4.338,2.786A13.938,13.938,0,0,1,354.09-156.531Z" transform="translate(-72.121 -31.955)" fill="#007ea4"/><path d="M407.675-156.531h0a13.3,13.3,0,0,1-4.78-.884,12.288,12.288,0,0,1-3.9-2.52,12.257,12.257,0,0,1-2.614-3.714,11.171,11.171,0,0,1-.927-4.554,12.056,12.056,0,0,1,1.062-5,11.906,11.906,0,0,1,2.874-4.068,12.854,12.854,0,0,1,4.3-2.786,13.727,13.727,0,0,1,5.223-1.018,16.521,16.521,0,0,1,4.025.442,11.92,11.92,0,0,1,3.146,1.15,6.535,6.535,0,0,1,2.083,1.813,3.725,3.725,0,0,1,.749,2.211,1.837,1.837,0,0,1-.307,1.017,2.281,2.281,0,0,1-.8.8,2.966,2.966,0,0,1-1.11.575,3.722,3.722,0,0,1-1.2.177,3,3,0,0,1-1.281-.221,3.552,3.552,0,0,1-.974-.575,2.651,2.651,0,0,1-.578-.841,2.427,2.427,0,0,1-.219-.928,5.833,5.833,0,0,0-.177-1.547,2.7,2.7,0,0,0-.708-1.239,3.831,3.831,0,0,0-1.328-.8,6.91,6.91,0,0,0-2.125-.265,7,7,0,0,0-3.145.619,7.375,7.375,0,0,0-2.391,1.768,8.083,8.083,0,0,0-1.458,2.565,9.174,9.174,0,0,0-.531,3.14,13.81,13.81,0,0,0,.661,4.289,11.642,11.642,0,0,0,1.818,3.537A8.787,8.787,0,0,0,405.946-161a7.977,7.977,0,0,0,3.718.884,8.506,8.506,0,0,0,3.146-.531,7.1,7.1,0,0,0,2.3-1.37,8.425,8.425,0,0,0,1.682-2.034,14.135,14.135,0,0,0,1.239-2.476l1.594.575a17.3,17.3,0,0,1-1.812,3.98,11.3,11.3,0,0,1-2.614,2.963,11.563,11.563,0,0,1-3.411,1.856A12.169,12.169,0,0,1,407.675-156.531Z" transform="translate(-94.715 -31.955)" fill="#007ea4"/><path d="M459.623-170.769h0c-.75.221-1.5.487-2.3.751a21.964,21.964,0,0,0-2.349.928c-.75.354-1.5.708-2.166,1.106a11.947,11.947,0,0,0-1.818,1.282,7.322,7.322,0,0,0-1.239,1.459,3.193,3.193,0,0,0-.484,1.591,3.974,3.974,0,0,0,.354,1.636,4.161,4.161,0,0,0,.927,1.37,4.571,4.571,0,0,0,1.328.928,3.947,3.947,0,0,0,1.594.31,6.647,6.647,0,0,0,1.64-.177,9.013,9.013,0,0,0,1.546-.53c.49-.265.974-.531,1.464-.84s.974-.663,1.5-1.017Zm5.182,13.751h-5.182v-3.228c-.572.4-1.2.84-1.771,1.283a14.309,14.309,0,0,1-1.947,1.193,10.477,10.477,0,0,1-2.26.884,9.471,9.471,0,0,1-2.874.354,8.033,8.033,0,0,1-2.791-.442,6.443,6.443,0,0,1-2.077-1.238,5.437,5.437,0,0,1-1.328-1.857,5.793,5.793,0,0,1-.49-2.344,5.7,5.7,0,0,1,.667-2.741,8.443,8.443,0,0,1,1.811-2.167,17.627,17.627,0,0,1,2.7-1.725,27.637,27.637,0,0,1,3.275-1.326c1.151-.354,2.3-.707,3.541-1.017,1.192-.31,2.39-.619,3.541-.885v-1.459a9.715,9.715,0,0,0-.354-2.742,4.757,4.757,0,0,0-.974-1.769,3.711,3.711,0,0,0-1.594-.973,7.95,7.95,0,0,0-2.124-.31,6.95,6.95,0,0,0-2.125.31,3.458,3.458,0,0,0-1.287.84,2.276,2.276,0,0,0-.619,1.15,4.364,4.364,0,0,0-.177,1.282,10.142,10.142,0,0,1-.089,1.194,4.043,4.043,0,0,1-.4,1.018,3,3,0,0,1-.8.663,2.776,2.776,0,0,1-1.287.265,2.542,2.542,0,0,1-1.947-.8,2.751,2.751,0,0,1-.75-1.946,3.392,3.392,0,0,1,.838-2.211,7.334,7.334,0,0,1,2.3-1.724,12.731,12.731,0,0,1,3.323-1.15,16.644,16.644,0,0,1,3.983-.442,17.447,17.447,0,0,1,4.338.442,7.65,7.65,0,0,1,2.833,1.282,4.757,4.757,0,0,1,1.593,1.946,6.952,6.952,0,0,1,.49,2.608Z" transform="translate(-114.658 -31.955)" fill="#007ea4"/><path d="M505-165.312h0a8.037,8.037,0,0,1-2.745,2.565,8.822,8.822,0,0,1-4.208.928,6.107,6.107,0,0,1-2.3-.4,4.487,4.487,0,0,1-1.593-1.105,4.512,4.512,0,0,1-.885-1.725,7.041,7.041,0,0,1-.313-2.254v-16.626h-4.515v-1.149a7.852,7.852,0,0,0,3.588-.708,6.553,6.553,0,0,0,2.3-1.945,9.168,9.168,0,0,0,1.416-2.786c.307-1.105.62-2.211.885-3.449h1.458v8.092h5.849v1.945h-5.849V-167.3a2.017,2.017,0,0,0,.225,1.017,2.009,2.009,0,0,0,.572.8,2.965,2.965,0,0,0,.891.53,3.052,3.052,0,0,0,1.1.177,3.263,3.263,0,0,0,1.593-.4,5.3,5.3,0,0,0,1.24-.928Z" transform="translate(-132.85 -26.667)" fill="#007ea4"/><path d="M539.827-173.024h0a6.545,6.545,0,0,0-.484-2.476,5.965,5.965,0,0,0-1.463-1.99,6.45,6.45,0,0,0-2.125-1.37,7.2,7.2,0,0,0-2.614-.442,5.5,5.5,0,0,0-2.213.442,8.079,8.079,0,0,0-1.9,1.326,7.961,7.961,0,0,0-1.416,1.99,8.151,8.151,0,0,0-.667,2.52Zm-5.135,16.493h0a13.3,13.3,0,0,1-4.957-.884,13.58,13.58,0,0,1-4.031-2.432,12.132,12.132,0,0,1-2.744-3.626,10.314,10.314,0,0,1-.974-4.466,15.447,15.447,0,0,1,.885-5.218,12.052,12.052,0,0,1,2.615-4.156,11.723,11.723,0,0,1,4.025-2.786,14.1,14.1,0,0,1,5.223-.973,12.323,12.323,0,0,1,4.7.841,11.043,11.043,0,0,1,3.63,2.167,9.526,9.526,0,0,1,2.39,3.183,8.529,8.529,0,0,1,.838,3.759H526.943a13.755,13.755,0,0,0,.667,4.377,10.608,10.608,0,0,0,1.9,3.493,8.481,8.481,0,0,0,2.88,2.3,7.867,7.867,0,0,0,3.677.84,11.505,11.505,0,0,0,3.275-.487,11.451,11.451,0,0,0,2.786-1.282,8.581,8.581,0,0,0,2.125-1.857,6.814,6.814,0,0,0,1.286-2.122l1.458.575a10.566,10.566,0,0,1-1.811,3.4,14.348,14.348,0,0,1-2.88,2.786,15.649,15.649,0,0,1-3.629,1.9A12.541,12.541,0,0,1,534.692-156.531Z" transform="translate(-146.609 -31.955)" fill="#007ea4"/><path d="M582.209-158.167h0a6.7,6.7,0,0,0,1.948-.265,6.35,6.35,0,0,0,1.547-.8,4.013,4.013,0,0,0,1.021-1.106,2.689,2.689,0,0,0,.354-1.282,3.076,3.076,0,0,0-.62-1.9,4.808,4.808,0,0,0-1.552-1.415,13.447,13.447,0,0,0-2.255-1.194c-.844-.354-1.682-.751-2.526-1.105a26.614,26.614,0,0,1-2.567-1.194,11.266,11.266,0,0,1-2.213-1.5,6.079,6.079,0,0,1-1.593-1.945,5.253,5.253,0,0,1-.579-2.609,5.484,5.484,0,0,1,.667-2.653,6.792,6.792,0,0,1,1.811-2.079,9.986,9.986,0,0,1,2.833-1.371,12.744,12.744,0,0,1,3.547-.487,14.289,14.289,0,0,1,2.431.177,7.572,7.572,0,0,1,2.172.619,8.7,8.7,0,0,1,2.166,1.327,15.268,15.268,0,0,1,2.26,2.255l-1.906,1.547a10.447,10.447,0,0,0-3.276-3.272,7.752,7.752,0,0,0-3.9-1.105,7.339,7.339,0,0,0-2.036.265,6.425,6.425,0,0,0-1.552.663,3.152,3.152,0,0,0-1.015,1.017,2.078,2.078,0,0,0-.354,1.194,2.81,2.81,0,0,0,.661,1.857,5.389,5.389,0,0,0,1.688,1.415,13.9,13.9,0,0,0,2.431,1.15c.885.4,1.818.752,2.744,1.105q1.461.6,2.792,1.194a11.953,11.953,0,0,1,2.431,1.5,7.032,7.032,0,0,1,1.682,1.945,4.925,4.925,0,0,1,.667,2.565,5.859,5.859,0,0,1-.619,2.786,6.176,6.176,0,0,1-1.859,2.3,8.83,8.83,0,0,1-3.1,1.5,15.719,15.719,0,0,1-4.338.531,21.466,21.466,0,0,1-2.349-.133,12.105,12.105,0,0,1-2.39-.663,10.1,10.1,0,0,1-2.437-1.327,12.484,12.484,0,0,1-2.39-2.211l2.083-1.769a22.96,22.96,0,0,0,1.811,2.078,9.407,9.407,0,0,0,1.729,1.371,8.431,8.431,0,0,0,1.859.8A7.928,7.928,0,0,0,582.209-158.167Z" transform="translate(-167.385 -31.955)" fill="#007ea4"/><g transform="translate(280.985 -258.985)"><path d="M382.381-234.5c-1.667-4.782-11.372-11.761-17.085-11.606a17.99,17.99,0,0,0-2.35,16.293,18.041,18.041,0,0,0,3.777,6.315C369.582-226.744,384.064-229.665,382.381-234.5Z" transform="translate(-361.962 253.703)" fill="#f36a25"/><path d="M384.315-251.079c3.489-1.355,9.873-2.516,12.842-4.151a18.114,18.114,0,0,0-16.947-2.764,18.156,18.156,0,0,0-3.353,1.561C378.2-254.72,381.134-252.947,384.315-251.079Z" transform="translate(-368.071 258.985)" fill="#f36a25"/><path d="M406.913-241.056a17.851,17.851,0,0,0-1.767-3.693,60.261,60.261,0,0,0-10.831,3.34,15.8,15.8,0,0,1,4.937,4.727c5.331,9.737-13.9,14.724-13.187,19.165a17.963,17.963,0,0,0,9.735-.592A18,18,0,0,0,406.913-241.056Z" transform="translate(-371.84 253.146)" fill="#f36a25"/><path d="M391.693-240.747a15.8,15.8,0,0,0-4.937-4.727,60.261,60.261,0,0,1,10.831-3.34,17.744,17.744,0,0,0-4.221-4.642c-2.969,1.636-9.353,2.8-12.842,4.151-3.181-1.868-6.113-3.641-7.458-5.355a17.953,17.953,0,0,0-5.452,5.047c5.712-.155,15.418,6.824,17.085,11.606,1.683,4.833-12.8,7.754-15.657,11a18.119,18.119,0,0,0,9.463,5.423C377.793-226.023,397.024-231.009,391.693-240.747Z" transform="translate(-364.281 257.211)" fill="#fefefe"/></g></g></svg>