<?xml version="1.0" encoding="UTF-8"?> <svg xmlns="http://www.w3.org/2000/svg" xmlns:xlink="http://www.w3.org/1999/xlink" width="516px" height="136px" viewBox="0 0 516 136"><!-- Generator: Sketch 52.6 (67491) - http://www.bohemiancoding.com/sketch --><title>cla_logo_rgb</title><desc>Created with Sketch.</desc><g id="cla_logo_rgb" stroke="none" stroke-width="1" fill="none" fill-rule="evenodd"><path d="M84.35,92.237 L84.35,95.168 C84.35,96.07 83.619,96.801 82.717,96.801 L45.584,96.801 C44.681,96.801 43.95,96.07 43.95,95.168 L43.95,92.237 C43.95,91.335 44.681,90.604 45.584,90.604 L82.717,90.604 C83.619,90.604 84.35,91.335 84.35,92.237 Z M43.95,34.95 C43.95,34.048 44.681,33.317 45.584,33.317 L82.717,33.317 C83.619,33.317 84.35,34.048 84.35,34.95 L84.35,37.88 C84.35,38.782 83.619,39.514 82.717,39.514 L45.584,39.514 C44.681,39.514 43.95,38.782 43.95,37.88 L43.95,34.95 Z M80.685,87.088 C80.685,87.99 79.954,88.721 79.052,88.721 L49.248,88.721 C48.346,88.721 47.615,87.99 47.615,87.088 L47.615,43.03 C47.615,42.128 48.346,41.396 49.248,41.396 L79.052,41.396 C79.954,41.396 80.685,42.128 80.685,43.03 L80.685,57.482 L128.155,57.482 C124.343,25.599 97.225,0.876 64.316,0.876 C28.795,0.876 0,29.671 0,65.192 C0,100.712 28.795,129.507 64.316,129.507 C97.317,129.507 124.497,104.648 128.189,72.636 L80.685,72.636 L80.685,87.088 Z" id="Fill-1" fill="#32788C"></path><path d="M200.354,50.715 C195.54,55.461 189.323,57.668 182.57,57.668 C165.188,57.668 157.833,45.7 157.767,33.533 C157.7,21.298 165.656,8.863 182.57,8.863 C188.922,8.863 194.938,11.27 199.751,16.017 L193.868,21.699 C190.793,18.69 186.648,17.287 182.57,17.287 C171.272,17.287 166.39,25.71 166.458,33.533 C166.525,41.289 171.004,49.378 182.57,49.378 C186.648,49.378 191.262,47.707 194.336,44.63 L200.354,50.715" id="Fill-3" fill="#183341"></path><path d="M209.252,40.151 C209.252,45.165 212.261,49.846 218.21,49.846 C224.161,49.846 227.17,45.165 227.17,40.151 C227.17,35.204 223.693,30.389 218.21,30.389 C212.327,30.389 209.252,35.204 209.252,40.151 Z M235.392,40.151 C235.392,49.644 228.907,57.334 218.21,57.334 C207.514,57.334 201.095,49.644 201.095,40.151 C201.095,30.725 207.647,22.969 218.144,22.969 C228.64,22.969 235.392,30.725 235.392,40.151 Z" id="Fill-4" fill="#183341"></path><path d="M264.348,56.598 L264.348,38.947 C264.348,34.603 262.075,30.657 257.595,30.657 C253.182,30.657 250.576,34.603 250.576,38.947 L250.576,56.598 L242.419,56.598 L242.419,23.57 L249.973,23.57 L250.576,27.583 C252.313,24.239 256.125,23.037 259.267,23.037 C263.212,23.037 267.156,24.64 269.027,29.187 C271.97,24.507 275.78,23.17 280.058,23.17 C289.419,23.17 294.031,28.919 294.031,38.814 L294.031,56.598 L285.875,56.598 L285.875,38.814 C285.875,34.468 284.071,30.792 279.658,30.792 C275.245,30.792 272.504,34.603 272.504,38.947 L272.504,56.598 L264.348,56.598" id="Fill-5" fill="#183341"></path><path d="M324.26,56.598 L324.26,38.947 C324.26,34.603 321.986,30.657 317.507,30.657 C313.094,30.657 310.488,34.603 310.488,38.947 L310.488,56.598 L302.331,56.598 L302.331,23.57 L309.885,23.57 L310.488,27.583 C312.226,24.239 316.036,23.037 319.178,23.037 C323.123,23.037 327.068,24.64 328.939,29.187 C331.881,24.507 335.692,23.17 339.971,23.17 C349.33,23.17 353.944,28.919 353.944,38.814 L353.944,56.598 L345.787,56.598 L345.787,38.814 C345.787,34.468 343.982,30.792 339.57,30.792 C335.157,30.792 332.416,34.603 332.416,38.947 L332.416,56.598 L324.26,56.598" id="Fill-6" fill="#183341"></path><path d="M369.197,23.638 L369.197,40.886 C369.197,45.901 371.937,49.711 377.152,49.711 C382.166,49.711 385.576,45.5 385.576,40.485 L385.576,23.638 L393.665,23.638 L393.665,56.665 L386.378,56.665 L385.843,52.186 C382.434,55.528 379.291,57.133 374.679,57.133 C366.789,57.133 361.039,51.182 361.039,40.953 L361.039,23.638 L369.197,23.638" id="Fill-7" fill="#183341"></path><path d="M425.16,56.598 L425.16,39.35 C425.16,34.335 422.42,30.525 417.204,30.525 C412.191,30.525 408.781,34.735 408.781,39.751 L408.781,56.598 L400.692,56.598 L400.692,23.57 L407.979,23.57 L408.514,28.049 C411.856,24.775 415.2,23.104 419.344,23.104 C427.1,23.104 433.318,28.919 433.318,39.282 L433.318,56.598 L425.16,56.598" id="Fill-8" fill="#183341"></path><path d="M440.343,56.598 L448.499,56.598 L448.499,23.505 L440.343,23.505 L440.343,56.598 Z M449.235,14.346 C449.235,20.697 439.608,20.697 439.608,14.346 C439.608,7.993 449.235,7.993 449.235,14.346 Z" id="Fill-9" fill="#183341"></path><path d="M467.355,14.346 L467.355,23.705 L476.447,23.705 L476.447,30.725 L467.287,30.725 L467.287,44.964 C467.287,48.108 469.026,49.644 471.567,49.644 C472.836,49.644 474.307,49.243 475.511,48.642 L477.784,55.595 C475.444,56.53 473.505,56.931 471.032,56.999 C463.878,57.267 459.199,53.188 459.199,44.964 L459.199,30.725 L453.047,30.725 L453.047,23.705 L459.199,23.705 L459.199,15.213 L467.355,14.346" id="Fill-10" fill="#183341"></path><polyline id="Fill-11" fill="#183341" points="515.761 23.638 495.637 70.371 486.679 70.371 492.83 56.062 479.659 23.638 489.153 23.638 494.166 37.879 497.309 47.171 500.719 38.08 506.736 23.638 515.761 23.638"></polyline><polyline id="Fill-12" fill="#183341" points="169.738 68.609 169.738 107.252 193.806 107.252 193.806 115.408 160.912 115.408 160.912 68.609 169.738 68.609"></polyline><path d="M224.298,95.084 C223.762,90.805 220.42,88.666 215.741,88.666 C211.328,88.666 207.717,90.805 206.514,95.084 L224.298,95.084 Z M206.38,101.835 C206.915,105.914 210.458,108.857 216.208,108.857 C219.217,108.857 223.161,107.719 225.033,105.781 L230.248,110.928 C226.771,114.539 221.089,116.277 216.074,116.277 C204.709,116.277 197.957,109.257 197.957,98.694 C197.957,88.666 204.776,81.446 215.472,81.446 C226.504,81.446 233.389,88.265 232.119,101.835 L206.38,101.835 Z" id="Fill-13" fill="#183341"></path><path d="M244.827,98.092 C244.827,103.841 248.705,107.252 253.451,107.252 C258.132,107.252 262.009,103.774 262.009,98.092 C262.009,92.411 258.132,88.799 253.451,88.799 C248.705,88.799 244.827,92.343 244.827,98.092 Z M264.283,79.106 L270.3,83.65 L266.622,88.332 C269.163,91.206 270.099,94.483 270.099,98.092 C270.099,102.17 268.561,107.92 263.146,110.393 C268.628,113.135 269.965,117.079 269.965,121.291 C269.965,130.383 263.012,136 253.451,136 C243.892,136 236.739,130.183 236.739,121.291 L244.827,121.291 C244.827,125.569 248.772,128.377 253.451,128.377 C258.132,128.377 261.808,125.836 261.808,121.291 C261.808,116.746 257.53,114.671 253.451,114.671 C243.157,114.671 236.739,108.388 236.739,98.092 C236.739,87.796 244.226,81.379 253.451,81.379 C256.059,81.379 258.733,81.714 261.007,83.25 L264.283,79.106 Z" id="Fill-14" fill="#183341"></path><path d="M281.67,98.894 C281.67,105.179 286.015,108.922 291.43,108.922 C304.267,108.922 304.267,88.934 291.43,88.934 C286.015,88.934 281.67,92.611 281.67,98.894 Z M301.459,82.448 L309.282,82.448 L309.282,115.408 L301.593,115.408 L301.192,110.593 C299.32,114.471 294.172,116.344 290.495,116.41 C280.734,116.477 273.513,110.46 273.513,98.894 C273.513,87.528 281.068,81.579 290.695,81.646 C295.108,81.646 299.32,83.718 301.192,86.995 L301.459,82.448 Z" id="Fill-15" fill="#183341"></path><polygon id="Fill-16" fill="#183341" points="316.173 115.408 324.263 115.408 324.263 68.675 316.173 68.675"></polygon><path d="M366.519,78.437 L357.828,98.36 L375.21,98.36 L366.519,78.437 Z M378.754,106.583 L354.284,106.583 L350.273,115.408 L340.713,115.408 L361.705,68.609 L371.332,68.609 L392.326,115.408 L382.699,115.408 L378.754,106.583 Z" id="Fill-17" fill="#183341"></path><path d="M395.008,115.408 L403.164,115.408 L403.164,82.315 L395.008,82.315 L395.008,115.408 Z M403.9,73.156 C403.9,79.507 394.273,79.507 394.273,73.156 C394.273,66.804 403.9,66.804 403.9,73.156 Z" id="Fill-18" fill="#183341"></path><path d="M417.139,98.894 C417.139,104.643 421.284,108.588 426.499,108.588 C431.648,108.588 436.059,104.844 436.059,98.894 C436.059,93.145 431.648,89.267 426.499,89.267 C421.284,89.267 417.139,92.944 417.139,98.894 Z M444.75,68.675 L444.75,115.408 L437.128,115.408 L436.594,110.861 C434.054,114.806 429.975,116.144 425.964,116.144 C416.27,116.144 408.983,109.726 408.983,98.894 C408.983,87.528 416.136,81.646 425.763,81.646 C429.24,81.646 434.655,83.518 436.594,86.927 L436.594,68.675 L444.75,68.675 Z" id="Fill-19" fill="#183341"></path></g></svg> 