<?xml version="1.0" encoding="utf-8"?>
<!-- Generator: Adobe Illustrator 26.2.1, SVG Export Plug-In . SVG Version: 6.00 Build 0)  -->
<svg version="1.1" id="Layer_1" xmlns="http://www.w3.org/2000/svg" xmlns:xlink="http://www.w3.org/1999/xlink" x="0px" y="0px"
	 viewBox="0 0 656.3 278.5" style="enable-background:new 0 0 656.3 278.5;" xml:space="preserve">
<style type="text/css">
	.st0{fill:#2E368F;}
	.st1{fill:#28AAE1;}
</style>
<g>
	<path class="st0" d="M0,37.2V0.6h6l7.1,25.9l1.4,5.4c0.3-1.3,0.9-3.3,1.6-5.9l7.2-25.4h5.3v36.6h-3.8V6.6l-8.7,30.6h-3.6L3.8,6.1
		v31.1H0z"/>
	<path class="st0" d="M33.6,37.2L45.2,0.6h4.2l12.3,36.6h-4.5l-3.5-11.1H41.1l-3.3,11.1H33.6z M42.2,22.2h10.2l-3.1-10.1
		c-1-3.1-1.7-5.6-2.1-7.6c-0.4,2.3-0.9,4.7-1.6,7L42.2,22.2z"/>
	<path class="st0" d="M65.4,25.4l3.7-0.4c0.2,2,0.7,3.6,1.4,4.7c0.7,1.1,1.7,2,3,2.7c1.3,0.7,2.8,1,4.4,1c2.4,0,4.2-0.6,5.5-1.7
		c1.3-1.2,2-2.7,2-4.5c0-1.1-0.2-2-0.7-2.8c-0.5-0.8-1.2-1.5-2.1-2c-1-0.5-3-1.2-6.2-2.2c-2.8-0.8-4.8-1.7-6-2.5
		c-1.2-0.8-2.1-1.9-2.8-3.2c-0.7-1.3-1-2.8-1-4.4c0-3,1-5.4,2.9-7.3C71.3,0.9,73.9,0,77.1,0c2.2,0,4.2,0.4,5.8,1.3
		c1.7,0.9,3,2.1,3.9,3.8c0.9,1.6,1.4,3.6,1.5,5.8l-3.8,0.3c-0.2-2.4-0.9-4.1-2.1-5.3c-1.2-1.1-2.9-1.7-5.2-1.7c-2.2,0-4,0.5-5.1,1.5
		s-1.8,2.3-1.8,3.9c0,1.5,0.4,2.6,1.3,3.4c0.9,0.8,2.8,1.6,5.8,2.5c3,0.8,5,1.5,6.2,2.1c1.8,0.9,3.2,2.2,4.1,3.7
		c0.9,1.5,1.4,3.3,1.4,5.4c0,2.1-0.5,4-1.5,5.7c-1,1.7-2.3,3-4,3.9c-1.7,0.9-3.7,1.3-6.1,1.3c-3.7,0-6.7-1.1-8.9-3.3
		C66.6,32.3,65.5,29.3,65.4,25.4z"/>
	<path class="st0" d="M95.2,25.4L99,25c0.2,2,0.7,3.6,1.4,4.7c0.7,1.1,1.7,2,3,2.7c1.3,0.7,2.8,1,4.4,1c2.4,0,4.2-0.6,5.5-1.7
		c1.3-1.2,2-2.7,2-4.5c0-1.1-0.2-2-0.7-2.8c-0.5-0.8-1.2-1.5-2.1-2c-1-0.5-3-1.2-6.2-2.2c-2.8-0.8-4.8-1.7-6-2.5
		c-1.2-0.8-2.1-1.9-2.8-3.2c-0.7-1.3-1-2.8-1-4.4c0-3,1-5.4,2.9-7.3c1.9-1.9,4.5-2.8,7.7-2.8c2.2,0,4.2,0.4,5.8,1.3
		c1.7,0.9,3,2.1,3.9,3.8c0.9,1.6,1.4,3.6,1.5,5.8l-3.8,0.3c-0.2-2.4-0.9-4.1-2.1-5.3c-1.2-1.1-2.9-1.7-5.2-1.7c-2.2,0-4,0.5-5.1,1.5
		s-1.8,2.3-1.8,3.9c0,1.5,0.4,2.6,1.3,3.4c0.9,0.8,2.8,1.6,5.8,2.5c3,0.8,5,1.5,6.2,2.1c1.8,0.9,3.2,2.2,4.1,3.7
		c0.9,1.5,1.4,3.3,1.4,5.4c0,2.1-0.5,4-1.5,5.7c-1,1.7-2.3,3-4,3.9c-1.7,0.9-3.7,1.3-6.1,1.3c-3.7,0-6.7-1.1-8.9-3.3
		C96.4,32.3,95.3,29.3,95.2,25.4z"/>
	<path class="st0" d="M123.1,37.2l11.6-36.6h4.2l12.3,36.6h-4.5l-3.5-11.1h-12.6l-3.3,11.1H123.1z M131.7,22.2h10.2l-3.1-10.1
		c-1-3.1-1.7-5.6-2.1-7.6c-0.4,2.3-0.9,4.7-1.6,7L131.7,22.2z"/>
	<path class="st0" d="M177.5,24.4l4,1.2c-0.9,4.1-2.4,7.2-4.6,9.2c-2.2,2-4.9,3-8,3c-2.8,0-5.2-0.7-7.1-2c-2-1.4-3.6-3.5-4.8-6.5
		c-1.3-3-1.9-6.5-1.9-10.6c0-4,0.6-7.4,1.9-10.2c1.3-2.8,3-4.9,5.1-6.3c2.1-1.4,4.5-2.1,7.2-2.1c2.9,0,5.4,0.9,7.5,2.7
		c2.1,1.8,3.5,4.4,4.4,7.9l-3.9,1.1c-1.3-5.1-4-7.6-8-7.6c-2,0-3.7,0.5-5.2,1.5c-1.5,1-2.6,2.6-3.5,4.8c-0.9,2.2-1.3,4.9-1.3,8.2
		c0,5,0.9,8.8,2.6,11.3c1.8,2.5,4.1,3.8,7,3.8c2.2,0,4-0.8,5.6-2.3C175.9,29.9,177,27.5,177.5,24.4z"/>
	<path class="st0" d="M188.3,37.2V0.6h4v15h15.6v-15h4v36.6h-4V20h-15.6v17.2H188.3z"/>
	<path class="st0" d="M240,0.6h4v21.1c0,3.5-0.3,6.4-1,8.7c-0.7,2.3-1.9,4.1-3.8,5.4c-1.8,1.3-4.1,2-6.9,2c-4,0-6.9-1.2-8.9-3.5
		c-2-2.4-3-6.5-3-12.5V0.6h4v21.1c0,3.3,0.3,5.7,0.8,7.2c0.5,1.5,1.4,2.6,2.5,3.4c1.2,0.8,2.6,1.2,4.3,1.2c2.8,0,4.9-0.8,6.1-2.4
		c1.3-1.6,1.9-4.7,1.9-9.3V0.6z"/>
	<path class="st0" d="M251.2,25.4L255,25c0.2,2,0.7,3.6,1.4,4.7c0.7,1.1,1.7,2,3,2.7c1.3,0.7,2.8,1,4.4,1c2.4,0,4.2-0.6,5.5-1.7
		c1.3-1.2,2-2.7,2-4.5c0-1.1-0.2-2-0.7-2.8c-0.5-0.8-1.2-1.5-2.1-2c-1-0.5-3-1.2-6.2-2.2c-2.8-0.8-4.8-1.7-6-2.5
		c-1.2-0.8-2.1-1.9-2.8-3.2c-0.7-1.3-1-2.8-1-4.4c0-3,1-5.4,2.9-7.3S259.7,0,263,0c2.2,0,4.2,0.4,5.8,1.3c1.7,0.9,3,2.1,3.9,3.8
		c0.9,1.6,1.4,3.6,1.5,5.8l-3.8,0.3c-0.2-2.4-0.9-4.1-2.1-5.3c-1.2-1.1-2.9-1.7-5.2-1.7c-2.2,0-4,0.5-5.1,1.5
		c-1.2,1-1.8,2.3-1.8,3.9c0,1.5,0.4,2.6,1.3,3.4c0.9,0.8,2.8,1.6,5.8,2.5c3,0.8,5,1.5,6.2,2.1c1.8,0.9,3.2,2.2,4.1,3.7
		c0.9,1.5,1.4,3.3,1.4,5.4c0,2.1-0.5,4-1.5,5.7c-1,1.7-2.3,3-4,3.9c-1.7,0.9-3.7,1.3-6.1,1.3c-3.7,0-6.7-1.1-8.9-3.3
		C252.5,32.3,251.3,29.3,251.2,25.4z"/>
	<path class="st0" d="M282.5,37.2V0.6h21.7V5h-17.7v11.2H303v4.3h-16.6v12.4h18.4v4.3H282.5z"/>
	<path class="st0" d="M319.9,37.2V5H310V0.6h23.8V5h-9.9v32.3H319.9z"/>
	<path class="st0" d="M347.4,37.2V5h-9.9V0.6h23.8V5h-9.9v32.3H347.4z"/>
	<path class="st0" d="M365.9,25.4l3.7-0.4c0.2,2,0.7,3.6,1.4,4.7c0.7,1.1,1.7,2,3,2.7c1.3,0.7,2.8,1,4.4,1c2.4,0,4.2-0.6,5.5-1.7
		c1.3-1.2,2-2.7,2-4.5c0-1.1-0.2-2-0.7-2.8c-0.5-0.8-1.2-1.5-2.1-2c-1-0.5-3-1.2-6.2-2.2c-2.8-0.8-4.8-1.7-6-2.5
		c-1.2-0.8-2.1-1.9-2.8-3.2c-0.7-1.3-1-2.8-1-4.4c0-3,1-5.4,2.9-7.3c1.9-1.9,4.5-2.8,7.7-2.8c2.2,0,4.2,0.4,5.8,1.3
		c1.7,0.9,3,2.1,3.9,3.8c0.9,1.6,1.4,3.6,1.5,5.8l-3.8,0.3c-0.2-2.4-0.9-4.1-2.1-5.3c-1.2-1.1-2.9-1.7-5.2-1.7c-2.2,0-4,0.5-5.1,1.5
		c-1.2,1-1.8,2.3-1.8,3.9c0,1.5,0.4,2.6,1.3,3.4c0.9,0.8,2.8,1.6,5.8,2.5c3,0.8,5,1.5,6.2,2.1c1.8,0.9,3.2,2.2,4.1,3.7
		c0.9,1.5,1.4,3.3,1.4,5.4c0,2.1-0.5,4-1.5,5.7c-1,1.7-2.3,3-4,3.9c-1.7,0.9-3.7,1.3-6.1,1.3c-3.7,0-6.7-1.1-8.9-3.3
		C367.1,32.3,365.9,29.3,365.9,25.4z"/>
</g>
<g>
	<defs>
		<polygon id="SVGID_1_" points="413.6,1.1 656.3,1.1 656.3,191.4 543.1,191.4 478.4,271 458.9,266.2 463.7,191.4 403.4,191.4 
			403.4,128.6 423.7,128.6 423.7,171 484.1,171 484.1,225.3 534.3,171 635.9,171 635.9,21.4 423.7,21.4 423.7,34.2 403.4,34.2 
			403.4,1.1 		"/>
	</defs>
	<use xlink:href="#SVGID_1_"  style="overflow:visible;fill-rule:evenodd;clip-rule:evenodd;fill:#FFC526;"/>
	<clipPath id="SVGID_00000077290453370150650480000016240385398799851415_">
		<use xlink:href="#SVGID_1_"  style="overflow:visible;"/>
	</clipPath>
</g>
<g>
	<g>
		<path class="st1" d="M1.2,49.7h32.5c11.5,0,19.4,6.7,19.4,16c0,6.5-3.3,11.3-9,14.3c7.5,3.4,11.8,9.3,11.8,16.4
			c0,10.3-8.8,17.4-21,17.4H1.2V49.7z M30.2,75.5c5.1,0,8.8-3,8.8-7.1c0-4-3.6-7-8.8-7H14.9v14.1H30.2z M32.3,102
			c5.5,0,9.4-3.3,9.4-7.8c0-4.6-3.9-7.8-9.4-7.8H14.9V102H32.3z"/>
		<path class="st1" d="M79.6,62.1v12.8h32.2v12.4H79.6v14.1h35.5v12.4H65.8V49.7h49.4v12.4H79.6z"/>
		<path class="st1" d="M182.3,49.7v64.1h-13.7V87.3h-29.2v26.5h-13.7V49.7h13.7v25.2h29.2V49.7H182.3z"/>
		<path class="st1" d="M237.9,103.7h-28.6l-4.1,10.1h-15.4L216,49.7h15.4l26.1,64.1H242L237.9,103.7z M233.1,92l-9.5-23.4L214.1,92
			H233.1z"/>
		<path class="st1" d="M319.4,49.7l-26.1,64.1h-15.4l-26.1-64.1h15.5l18.4,45.2L304,49.7H319.4z"/>
		<path class="st1" d="M327.2,49.7H341v64.1h-13.8V49.7z"/>
		<path class="st1" d="M351.2,81.7c0-18,15.7-33.1,34.1-33.1c18.6,0,34.1,15.1,34.1,33.1c0,18-15.5,33.2-34.1,33.2
			C366.9,114.9,351.2,99.7,351.2,81.7z M405.3,81.7c0-11.1-9.1-20.6-20-20.6c-10.7,0-19.9,9.5-19.9,20.6c0,11.2,9.1,20.7,19.9,20.7
			C396.1,102.4,405.3,92.9,405.3,81.7z"/>
		<path class="st1" d="M468.1,113.8L453.4,93h-10.2v20.8h-13.7V49.7h28.8c13.9,0,24.2,9,24.2,21.6c0,9.5-5.8,17-14.6,20.1l15.8,22.4
			H468.1z M443.2,80.4h13.6c6.8,0,11.5-3.5,11.5-9.1c0-5.5-4.7-9.1-11.5-9.1h-13.6V80.4z"/>
		<path class="st1" d="M535.7,103.7h-28.6l-4.1,10.1h-15.4l26.1-64.1h15.4l26.1,64.1h-15.5L535.7,103.7z M530.9,92l-9.5-23.4
			L511.9,92H530.9z"/>
		<path class="st1" d="M608.1,101.4v12.4h-45.7V49.7h13.8v51.7H608.1z"/>
		<path class="st1" d="M57.2,130v64.1H43.5v-26.5H14.3v26.5H0.6V130h13.7v25.2h29.2V130H57.2z"/>
		<path class="st1" d="M83.7,142.4v12.8h32.2v12.4H83.7v14.1h35.5v12.4H69.9V130h49.4v12.4H83.7z"/>
		<path class="st1" d="M172.7,184h-28.6l-4.1,10.1h-15.4l26.1-64.1h15.4l26.1,64.1h-15.5L172.7,184z M167.9,172.3l-9.5-23.4
			l-9.5,23.4H167.9z"/>
		<path class="st1" d="M245.1,181.7v12.4h-45.7V130h13.8v51.7H245.1z"/>
		<path class="st1" d="M268.7,142.4h-20V130h53.7v12.4h-20v51.7h-13.8V142.4z"/>
		<path class="st1" d="M368.3,130v64.1h-13.7v-26.5h-29.2v26.5h-13.7V130h13.7v25.2h29.2V130H368.3z"/>
	</g>
</g>
<g>
	<path class="st0" d="M-0.7,278.5v-70.1h11.6v27.6h22.8v-27.6h11.6v70.1H33.7v-30.6H10.9v30.6H-0.7z"/>
	<path class="st0" d="M62.3,278.5v-70.1H105v11.9H73.9v15.5h28.9v11.8H73.9v19H106v11.9H62.3z"/>
	<path class="st0" d="M121.2,278.5v-69.5h11.6v57.6h28.9v11.9H121.2z"/>
	<path class="st0" d="M175,278.5v-70.1h18.6c6.9,0,11.5,0.3,13.6,1c3.4,1.1,6.2,3.4,8.4,6.9c2.2,3.5,3.3,8.1,3.3,13.7
		c0,5.1-1,9.3-2.9,12.7c-1.9,3.4-4.3,5.8-7.2,7.2c-2.9,1.4-7.8,2.1-14.8,2.1h-7.6v26.4H175z M186.6,220.3v19.9h6.4
		c4.3,0,7.2-0.3,8.8-0.9c1.5-0.6,2.8-1.7,3.8-3.3c1-1.6,1.5-3.5,1.5-5.8c0-2.3-0.5-4.3-1.5-5.9c-1-1.6-2.3-2.7-3.8-3.2
		c-1.5-0.5-4.7-0.8-9.5-0.8H186.6z"/>
	<path class="st0" d="M251.4,278.5v-69.5h11.6v57.6h28.9v11.9H251.4z"/>
	<path class="st0" d="M304.8,278.5v-70.1h11.6v70.1H304.8z"/>
	<path class="st0" d="M332.7,278.5v-70.1H344l23.5,46.8v-46.8h10.8v70.1h-11.7l-23.1-45.7v45.7H332.7z"/>
	<path class="st0" d="M395.6,278.5v-70.1h42.6v11.9h-31.1v15.5H436v11.8h-28.9v19h32.1v11.9H395.6z"/>
</g>
</svg>
