<svg id="Layer_1" data-name="Layer 1" xmlns="http://www.w3.org/2000/svg" viewBox="0 0 284.66 38.65"><defs><style>.cls-1{fill:#231f20;}.cls-2{fill:#2b338c;}.cls-3{fill:#010101;}</style></defs><path class="cls-1" d="M64.43,64.21v0A4.12,4.12,0,0,1,68.62,60a4.24,4.24,0,0,1,3.2,1.27l-.92,1.06a3.23,3.23,0,0,0-2.29-1,2.72,2.72,0,0,0-2.68,2.86v0a2.74,2.74,0,0,0,2.69,2.88A3.19,3.19,0,0,0,71,66l.92.93a4.22,4.22,0,0,1-3.31,1.44A4.09,4.09,0,0,1,64.43,64.21Z" transform="translate(-21.1 -29.75)"/><path class="cls-1" d="M73.44,64.21v0A4.17,4.17,0,0,1,77.71,60,4.13,4.13,0,0,1,82,64.17v0a4.17,4.17,0,0,1-4.27,4.21A4.13,4.13,0,0,1,73.44,64.21Zm7,0v0a2.78,2.78,0,0,0-2.77-2.88,2.74,2.74,0,0,0-2.74,2.86v0a2.78,2.78,0,0,0,2.77,2.88A2.74,2.74,0,0,0,80.45,64.21Z" transform="translate(-21.1 -29.75)"/><path class="cls-1" d="M84.33,60.12h1.52L88.33,64l2.47-3.85h1.53v8.14H90.9V62.42l-2.57,3.84h0l-2.55-3.81v5.81h-1.4Z" transform="translate(-21.1 -29.75)"/><path class="cls-1" d="M95.07,60.12h1.52L99.07,64l2.47-3.85h1.53v8.14h-1.43V62.42l-2.57,3.84h0l-2.55-3.81v5.81h-1.4Z" transform="translate(-21.1 -29.75)"/><path class="cls-1" d="M105.68,64.81V60.12h1.43v4.63c0,1.51.78,2.31,2,2.31s2-.75,2-2.25V60.12h1.43v4.62c0,2.43-1.37,3.65-3.5,3.65S105.68,67.17,105.68,64.81Z" transform="translate(-21.1 -29.75)"/><path class="cls-1" d="M115.25,60.12h1.33l4.36,5.63V60.12h1.4v8.14h-1.19l-4.49-5.79v5.79h-1.41Z" transform="translate(-21.1 -29.75)"/><path class="cls-1" d="M125.16,60.12h1.43v8.14h-1.43Z" transform="translate(-21.1 -29.75)"/><path class="cls-1" d="M131.4,61.45h-2.6V60.12h6.62v1.33h-2.59v6.81H131.4Z" transform="translate(-21.1 -29.75)"/><path class="cls-1" d="M139.94,65.05l-3.24-4.93h1.7l2.27,3.59,2.3-3.59h1.64L141.38,65v3.24h-1.44Z" transform="translate(-21.1 -29.75)"/><path class="cls-1" d="M150.64,60.12h1.43V63.5H156V60.12h1.43v8.14H156V64.83h-3.88v3.43h-1.43Z" transform="translate(-21.1 -29.75)"/><path class="cls-1" d="M160.11,60.12h6V61.4h-4.61v2.12h4.08v1.29h-4.08V67h4.66v1.28h-6.09Z" transform="translate(-21.1 -29.75)"/><path class="cls-1" d="M171.43,60.06h1.32l3.59,8.2h-1.52l-.82-2h-3.85l-.84,2h-1.46Zm2,5-1.41-3.26L170.67,65Z" transform="translate(-21.1 -29.75)"/><path class="cls-1" d="M178.38,60.12h1.43V67h4.27v1.3h-5.7Z" transform="translate(-21.1 -29.75)"/><path class="cls-1" d="M187,61.45h-2.59V60.12h6.61v1.33h-2.59v6.81H187Z" transform="translate(-21.1 -29.75)"/><path class="cls-1" d="M193.2,60.12h1.43V63.5h3.88V60.12h1.43v8.14h-1.43V64.83h-3.88v3.43H193.2Z" transform="translate(-21.1 -29.75)"/><path class="cls-1" d="M202.68,60.12h1.43V67h4.28v1.3h-5.71Z" transform="translate(-21.1 -29.75)"/><path class="cls-1" d="M210.59,60.12H212v8.14h-1.43Z" transform="translate(-21.1 -29.75)"/><path class="cls-1" d="M214.84,60.12h1.32l4.36,5.63V60.12h1.41v8.14h-1.2l-4.49-5.79v5.79h-1.4Z" transform="translate(-21.1 -29.75)"/><path class="cls-1" d="M224.67,60.12h1.43v4.09L230,60.12h1.78l-3.4,3.5,3.55,4.64h-1.75l-2.78-3.66-1.26,1.3v2.36h-1.43Z" transform="translate(-21.1 -29.75)"/><path class="cls-2" d="M71.23,52.7c-4.13,0-6.65-2.3-6.65-6.83V37.09H68v8.7c0,2.5,1.25,3.79,3.32,3.79s3.31-1.25,3.31-3.69v-8.8H78v8.67c0,4.66-2.61,6.94-6.74,6.94" transform="translate(-21.1 -29.75)"/><polygon class="cls-2" points="71.68 22.71 71.68 12.68 67.36 19.24 67.27 19.24 62.98 12.74 62.99 22.71 59.67 22.71 59.67 7.34 63.32 7.34 67.36 13.84 71.4 7.34 75.04 7.34 75.04 22.71 71.68 22.71"/><path class="cls-2" d="M105.71,52.46V51.19a4.51,4.51,0,0,1-3.55,1.49c-2.23,0-4-1.27-4-3.6v0c0-2.56,2-3.75,4.75-3.75a8.47,8.47,0,0,1,2.87.48v-.2c0-1.38-.86-2.15-2.52-2.15a8.6,8.6,0,0,0-3.25.64l-.84-2.55a10.42,10.42,0,0,1,4.57-.94c3.64,0,5.25,1.89,5.25,5.07v6.83Zm.07-4.74a5.08,5.08,0,0,0-2.13-.44c-1.43,0-2.31.57-2.31,1.62V49c0,.9.75,1.43,1.82,1.43,1.57,0,2.62-.86,2.62-2.07Z" transform="translate(-21.1 -29.75)"/><path class="cls-2" d="M115.29,52.68a8.27,8.27,0,0,1-5.06-1.78l1.43-2.19a6.67,6.67,0,0,0,3.71,1.4c1,0,1.41-.35,1.41-.88v0c0-.73-1.14-1-2.44-1.36-1.65-.49-3.51-1.26-3.51-3.54v0c0-2.4,1.93-3.74,4.3-3.74a8.22,8.22,0,0,1,4.4,1.36l-1.28,2.31a7,7,0,0,0-3.18-1.1c-.81,0-1.23.35-1.23.81v0c0,.66,1.12,1,2.39,1.4,1.65.55,3.56,1.34,3.56,3.5v0c0,2.61-2,3.8-4.5,3.8" transform="translate(-21.1 -29.75)"/><path class="cls-2" d="M125.43,52.68a8.26,8.26,0,0,1-5.05-1.78l1.43-2.2a6.59,6.59,0,0,0,3.71,1.41c1,0,1.41-.35,1.41-.88v0c0-.73-1.15-1-2.44-1.37-1.65-.48-3.52-1.25-3.52-3.53v0c0-2.39,1.94-3.73,4.31-3.73a8.19,8.19,0,0,1,4.39,1.36l-1.27,2.31a7,7,0,0,0-3.19-1.1c-.81,0-1.23.35-1.23.81v0c0,.66,1.12,1,2.4,1.4,1.64.55,3.55,1.34,3.55,3.49v.05c0,2.61-2,3.8-4.5,3.8" transform="translate(-21.1 -29.75)"/><polygon class="cls-2" points="128.87 22.71 128.87 12.67 124.54 19.24 124.45 19.24 120.17 12.74 120.17 22.71 116.85 22.71 116.85 7.34 120.5 7.34 124.54 13.84 128.58 7.34 132.23 7.34 132.23 22.71 128.87 22.71"/><path class="cls-2" d="M166.94,47.74h-8.19a2.73,2.73,0,0,0,2.88,2.3,3.83,3.83,0,0,0,2.85-1.21l1.91,1.69a6.22,6.22,0,0,1-11-3.88v0a5.86,5.86,0,0,1,5.82-6.12c3.93,0,5.73,3.05,5.73,6.39v0c0,.33,0,.53,0,.84m-5.69-4.59a2.61,2.61,0,0,0-2.54,2.5h5a2.51,2.51,0,0,0-2.48-2.5" transform="translate(-21.1 -29.75)"/><path class="cls-2" d="M183.43,52.46V45.89c0-1.58-.7-2.39-2-2.39s-2,.81-2,2.39v6.57h-3.34V45.89c0-1.58-.7-2.39-2-2.39s-2,.81-2,2.39v6.57h-3.33V40.69h3.33v1.67a4.21,4.21,0,0,1,3.47-1.89,3.54,3.54,0,0,1,3.32,1.86,4.84,4.84,0,0,1,3.86-1.87c2.49,0,4,1.5,4,4.33v7.67Z" transform="translate(-21.1 -29.75)"/><path class="cls-2" d="M194.79,52.72a6.12,6.12,0,0,1-6.35-6.08v0a6.38,6.38,0,0,1,12.74,0v0a6.18,6.18,0,0,1-6.39,6.13m3.09-6.13a3.13,3.13,0,0,0-3.09-3.25,3,3,0,0,0-3.06,3.21v0a3.13,3.13,0,0,0,3.1,3.25,3,3,0,0,0,3-3.2Z" transform="translate(-21.1 -29.75)"/><path class="cls-2" d="M209.85,44c-2.22,0-3.58,1.34-3.58,4.15v4.35h-3.34V40.68h3.34v2.38a3.65,3.65,0,0,1,3.76-2.6V44Z" transform="translate(-21.1 -29.75)"/><path class="cls-2" d="M211.52,36.42H215v3h-3.51Zm.09,4.26h3.33V52.46h-3.33Z" transform="translate(-21.1 -29.75)"/><path class="cls-2" d="M224.32,52.46V51.18a4.52,4.52,0,0,1-3.55,1.5c-2.22,0-4.05-1.28-4.05-3.61v0c0-2.57,2-3.76,4.75-3.76a8.17,8.17,0,0,1,2.87.49v-.2c0-1.39-.85-2.15-2.52-2.15a8.75,8.75,0,0,0-3.25.63l-.84-2.54a10.31,10.31,0,0,1,4.57-1c3.65,0,5.25,1.89,5.25,5.07v6.84Zm.07-4.75a5.24,5.24,0,0,0-2.13-.44c-1.43,0-2.3.57-2.3,1.63v0c0,.9.74,1.43,1.82,1.43,1.55,0,2.61-.86,2.61-2.07Z" transform="translate(-21.1 -29.75)"/><rect class="cls-2" x="208.83" y="6.67" width="3.34" height="16.03"/><polygon class="cls-3" points="223 15.79 223 22.71 221.26 22.71 221.26 7.33 222.99 7.33 223 14.16 231.87 14.16 231.87 7.33 233.6 7.33 233.6 22.71 231.87 22.71 231.87 15.79 223 15.79"/><path class="cls-3" d="M263.11,51.25a4.72,4.72,0,0,0,3.58-1.61l1.05.94a5.84,5.84,0,0,1-4.68,2.14,5.65,5.65,0,0,1-5.66-5.93c0-3.3,2.3-5.93,5.44-5.93,3.36,0,5.3,2.68,5.3,6a3.33,3.33,0,0,1,0,.52h-9a4,4,0,0,0,4,3.85m3.31-5.1c-.17-2.07-1.36-3.86-3.62-3.86-2,0-3.47,1.64-3.69,3.86Z" transform="translate(-21.1 -29.75)"/><path class="cls-3" d="M271.1,43.27l-.5-1.38a9.38,9.38,0,0,1,4.13-1c3.09,0,4.82,1.58,4.82,4.57v6.94h-1.62V50.74a5,5,0,0,1-4.11,1.95c-2.11,0-4.24-1.18-4.24-3.55s2-3.69,4.86-3.69a11.89,11.89,0,0,1,3.49.48v-.4c0-2-1.25-3.09-3.38-3.09a7.94,7.94,0,0,0-3.45.83m.2,5.8c0,1.45,1.32,2.28,2.86,2.28,2.08,0,3.79-1.27,3.79-3.07v-1.1a11.87,11.87,0,0,0-3.34-.48c-2.13,0-3.31.92-3.31,2.37" transform="translate(-21.1 -29.75)"/><rect class="cls-3" x="261.56" y="6.67" width="1.69" height="16.03"/><path class="cls-3" d="M289.9,49.22a1.68,1.68,0,0,0,1.91,1.89,3.62,3.62,0,0,0,1.65-.39v1.45a4.34,4.34,0,0,1-2,.48,2.89,2.89,0,0,1-3.2-3.21V42.59h-1.58V41.1h1.58V37.67h1.69V41.1h3.6v1.49h-3.6Z" transform="translate(-21.1 -29.75)"/><path class="cls-3" d="M297.52,52.45h-1.69v-16h1.69v6.65a4.3,4.3,0,0,1,3.89-2.22c2.74,0,4.34,1.85,4.34,4.55v7.05h-1.69V45.82c0-2.11-1.14-3.43-3.13-3.43A3.34,3.34,0,0,0,297.52,46Z" transform="translate(-21.1 -29.75)"/><path class="cls-2" d="M34.68,61C28.42,60.83,20,55.64,21.21,50.08l2.75-13h5.16c3.47,0,5,2.4,5.08,5.47Z" transform="translate(-21.1 -29.75)"/><path class="cls-2" d="M35.08,61c6.38-.16,17-5.33,18.15-10.92l2.76-13H50.83c-3.47,0-6.11,2.41-7.45,5.52Z" transform="translate(-21.1 -29.75)"/><path class="cls-2" d="M37.43,33.22a4.48,4.48,0,0,1,4.21-3.47,2.71,2.71,0,0,1,2.72,3.46,4.53,4.53,0,0,1-4.21,3.43A2.7,2.7,0,0,1,37.43,33.22Z" transform="translate(-21.1 -29.75)"/></svg>