<svg xmlns="http://www.w3.org/2000/svg" width="350" height="91" viewBox="0 0 350 91" fill="none"><g clip-path="url(#clip0_82_115)"><path d="M95.5714 25.8461C110.217 11.7384 102.841 71.0769 120.48 56.8615C131.277 48.1385 145.388 33.7077 154.261 33.3846C161.744 33.0615 121.549 88.5231 108.186 90.8923C94.7162 93.2615 105.193 67.4154 94.0748 75.3846C84.4535 82.0615 69.2733 91 56.9795 89.8154C36.9886 87.8769 -12.6143 -6.35386 2.99354 0.538448C18.6014 7.43076 47.4651 77.4308 74.2978 48.4615C80.9257 41.2461 83.7052 37.2615 95.5714 25.8461Z" fill="#FFA06A"></path><path d="M128.925 7.96923C129.139 7.75384 129.46 7.64615 129.78 7.64615C130.101 7.64615 130.422 7.75384 130.636 7.96923C130.743 8.18461 130.849 8.2923 130.956 8.50769L134.698 19.8154L138.546 8.2923C138.653 8.18461 138.653 8.07692 138.76 7.96923C138.974 7.75384 139.295 7.64615 139.616 7.64615C139.936 7.64615 140.257 7.75384 140.471 7.96923C140.685 8.18461 140.791 8.50769 140.791 8.83076C140.791 9.04615 140.791 9.15384 140.685 9.26153L135.767 24.1231C135.66 24.2308 135.66 24.4461 135.446 24.5538C135.232 24.7692 134.912 24.8769 134.591 24.8769C134.27 24.8769 133.95 24.7692 133.736 24.5538C133.629 24.4461 133.522 24.2308 133.415 24.1231L129.674 12.7077L125.932 24.1231C125.825 24.2308 125.825 24.4461 125.611 24.5538C125.397 24.7692 125.077 24.8769 124.756 24.8769C124.435 24.8769 124.115 24.7692 123.901 24.5538C123.794 24.4461 123.687 24.2308 123.58 24.1231L118.663 9.26153C118.556 9.15384 118.556 8.93846 118.556 8.83076C118.556 8.50769 118.663 8.18461 118.876 7.96923C119.09 7.75384 119.411 7.64615 119.732 7.64615C120.052 7.64615 120.373 7.75384 120.587 7.96923C120.694 8.07692 120.801 8.18461 120.801 8.2923L124.649 19.8154L128.391 8.50769C128.711 8.2923 128.818 8.07692 128.925 7.96923Z" fill="#FFA06A"></path><path d="M163.775 16.3692C163.775 18.7385 162.92 20.7846 161.209 22.5077C159.499 24.2308 157.468 25.0923 155.116 25.0923C152.764 25.0923 150.733 24.2308 149.022 22.5077C147.312 20.7846 146.457 18.7385 146.457 16.3692C146.457 14 147.312 11.9538 149.022 10.2308C150.733 8.50769 152.764 7.64615 155.116 7.64615C157.468 7.64615 159.499 8.50769 161.209 10.2308C162.92 11.8461 163.775 13.8923 163.775 16.3692ZM155.116 10.1231C153.405 10.1231 151.909 10.7692 150.733 11.9538C149.557 13.1385 148.915 14.6461 148.915 16.3692C148.915 18.0923 149.557 19.6 150.733 20.7846C151.909 21.9692 153.405 22.6154 155.116 22.6154C156.826 22.6154 158.323 21.9692 159.499 20.7846C160.675 19.6 161.316 18.0923 161.316 16.3692C161.316 14.6461 160.675 13.1385 159.499 11.9538C158.323 10.6615 156.826 10.1231 155.116 10.1231Z" fill="#FFA06A"></path><path d="M171.258 8.83076C171.258 8.50768 171.365 8.18461 171.579 7.96922C171.793 7.75384 172.114 7.64614 172.434 7.64614C172.755 7.64614 173.076 7.75384 173.289 7.96922C173.503 8.18461 173.61 8.50768 173.61 8.83076V9.79999C175.107 8.2923 177.031 7.53845 179.169 7.53845C181.414 7.53845 183.231 8.2923 184.835 9.90768C186.439 11.5231 187.187 13.3538 187.187 15.6154V23.6923C187.187 24.0154 187.08 24.3384 186.866 24.5538C186.652 24.7692 186.332 24.8769 186.011 24.8769C185.69 24.8769 185.369 24.7692 185.156 24.5538C184.942 24.3384 184.835 24.0154 184.835 23.6923V15.6154C184.835 14.1077 184.3 12.7077 183.231 11.6308C182.162 10.5538 180.88 10.0154 179.276 10.0154C177.672 10.0154 176.39 10.5538 175.321 11.6308C174.252 12.7077 173.717 14 173.717 15.6154V23.6923C173.717 24.0154 173.61 24.3384 173.396 24.5538C173.183 24.7692 172.862 24.8769 172.541 24.8769C172.22 24.8769 171.9 24.7692 171.686 24.5538C171.472 24.3384 171.365 24.0154 171.365 23.6923V8.83076H171.258Z" fill="#FFA06A"></path><path d="M209.53 1.40001C209.53 1.07693 209.637 0.753855 209.851 0.53847C210.064 0.323085 210.385 0.215393 210.706 0.215393C211.027 0.215393 211.347 0.323085 211.561 0.53847C211.775 0.753855 211.882 1.07693 211.882 1.40001V16.3692C211.882 18.7385 211.027 20.7846 209.316 22.5077C207.606 24.2308 205.574 25.0923 203.223 25.0923C200.871 25.0923 198.84 24.2308 197.129 22.5077C195.419 20.7846 194.563 18.7385 194.563 16.3692C194.563 14 195.419 11.9539 197.129 10.2308C198.84 8.5077 200.871 7.64616 203.223 7.64616C205.574 7.64616 207.606 8.5077 209.316 10.2308C209.316 10.2308 209.316 10.2308 209.423 10.3385V1.40001H209.53ZM209.53 16.3692C209.53 14.6462 208.888 13.1385 207.713 11.9539C206.537 10.7692 205.04 10.1231 203.33 10.1231C201.619 10.1231 200.122 10.7692 198.946 11.9539C197.771 13.1385 197.129 14.6462 197.129 16.3692C197.129 18.0923 197.771 19.6 198.946 20.7846C200.122 21.9692 201.619 22.6154 203.33 22.6154C205.04 22.6154 206.537 21.9692 207.713 20.7846C208.995 19.4923 209.53 18.0923 209.53 16.3692Z" fill="#FFA06A"></path><path d="M232.834 20.7846C233.155 20.7846 233.476 20.8923 233.69 21.1077C233.904 21.3231 234.01 21.6461 234.01 21.9692C234.01 22.2923 233.904 22.6154 233.69 22.8308C232.086 24.2308 230.162 24.9846 228.024 24.9846C225.672 24.9846 223.641 24.1231 221.93 22.4C220.22 20.6769 219.365 18.6308 219.365 16.2615C219.365 13.8923 220.22 11.8461 221.93 10.1231C223.641 8.39999 225.672 7.53845 228.024 7.53845C230.376 7.53845 232.407 8.39999 234.117 10.1231C235.828 11.8461 236.683 13.8923 236.683 16.2615C236.683 16.5846 236.576 16.9077 236.362 17.1231C236.148 17.3385 235.828 17.4461 235.507 17.4461H222.037C222.251 18.6308 222.786 19.7077 223.748 20.5692C224.924 21.7538 226.42 22.4 228.131 22.4C229.627 22.4 231.017 21.8615 232.086 20.8923C232.3 20.8923 232.621 20.7846 232.834 20.7846ZM234.224 15.0769C234.01 13.8923 233.476 12.8154 232.514 11.9538C231.338 10.7692 229.841 10.1231 228.131 10.1231C226.42 10.1231 224.924 10.7692 223.748 11.9538C222.893 12.8154 222.251 13.8923 222.037 15.0769H234.224Z" fill="#FFA06A"></path><path d="M244.166 8.83076C244.166 8.50769 244.273 8.18461 244.487 7.96923C244.701 7.75384 245.021 7.64615 245.342 7.64615C245.663 7.64615 245.983 7.75384 246.197 7.96923C246.411 8.18461 246.518 8.50769 246.518 8.83076V10.2308C248.228 8.50769 250.259 7.64615 252.718 7.64615C253.894 7.64615 255.07 7.86153 256.032 8.2923C256.246 8.39999 256.353 8.50769 256.567 8.61538C256.781 8.83076 256.887 9.15384 256.887 9.47692C256.887 9.79999 256.781 10.1231 256.567 10.3385C256.353 10.5538 256.032 10.6615 255.712 10.6615C255.498 10.6615 255.284 10.6615 255.177 10.5538C254.429 10.2308 253.68 10.1231 252.718 10.1231C251.008 10.1231 249.511 10.7692 248.335 11.9538C247.159 13.1385 246.518 14.6461 246.518 16.3692V23.8C246.518 24.1231 246.411 24.4461 246.197 24.6615C245.983 24.8769 245.663 24.9846 245.342 24.9846C245.021 24.9846 244.701 24.8769 244.487 24.6615C244.273 24.4461 244.166 24.1231 244.166 23.8V8.83076Z" fill="#FFA06A"></path><path d="M276.879 3.44613C273.992 3.44613 272.602 4.84613 272.602 7.75382V8.61536H275.703C276.13 8.61536 276.558 8.72305 276.879 9.04613C277.199 9.3692 277.306 9.69228 277.306 10.2307C277.306 10.6615 277.199 11.0923 276.879 11.4154C276.558 11.7384 276.237 11.8461 275.703 11.8461H272.602V23.4769C272.602 23.6923 272.602 23.9077 272.496 24.1231C272.389 24.3384 272.282 24.4461 272.175 24.6615C272.068 24.7692 271.854 24.8769 271.64 24.9846C271.426 25.0923 271.213 25.0923 270.999 25.0923C270.785 25.0923 270.571 25.0923 270.357 24.9846C270.144 24.8769 270.037 24.7692 269.823 24.6615C269.716 24.5538 269.609 24.3384 269.502 24.1231C269.395 23.9077 269.395 23.6923 269.395 23.4769V11.7384H268.647C268.219 11.7384 267.792 11.6307 267.471 11.3077C267.15 10.9846 267.043 10.5538 267.043 10.1231C267.043 9.69228 267.15 9.26151 267.471 8.93844C267.792 8.61536 268.112 8.50767 268.647 8.50767H269.395V7.64613C269.395 2.58459 271.854 0.107666 276.879 0.107666C277.306 0.107666 277.734 0.215358 278.054 0.538435C278.375 0.861512 278.482 1.18459 278.482 1.72305C278.482 2.15382 278.375 2.58459 278.054 2.90767C277.734 3.23074 277.306 3.44613 276.879 3.44613Z" fill="#FFA06A" stroke="#FFA06A" stroke-width="0.25" stroke-miterlimit="10"></path><path d="M299.863 24.9846C299.435 24.9846 299.007 24.8769 298.687 24.5538C298.366 24.2308 298.259 23.9077 298.259 23.3692C297.511 23.9077 296.762 24.3385 296.014 24.5538C295.266 24.7692 294.411 24.9846 293.448 24.9846C292.379 24.9846 291.31 24.7692 290.348 24.3385C289.386 23.9077 288.531 23.3692 287.783 22.6154C287.034 21.8615 286.5 21 286.072 20.0308C285.644 19.0615 285.431 17.9846 285.431 16.9077V9.26153C285.431 8.83076 285.538 8.39999 285.858 8.07692C286.179 7.75384 286.607 7.64615 287.034 7.64615C287.462 7.64615 287.889 7.75384 288.21 8.07692C288.531 8.39999 288.638 8.72307 288.638 9.26153V16.9077C288.638 17.5538 288.745 18.2 289.065 18.8461C289.279 19.3846 289.707 19.9231 290.134 20.3538C290.562 20.7846 291.097 21.1077 291.631 21.4308C292.166 21.6461 292.807 21.8615 293.555 21.8615C294.197 21.8615 294.838 21.7538 295.373 21.4308C295.907 21.2154 296.442 20.7846 296.869 20.3538C297.297 19.9231 297.618 19.3846 297.938 18.8461C298.152 18.3077 298.366 17.6615 298.366 16.9077V9.26153C298.366 8.83076 298.473 8.39999 298.794 8.07692C299.114 7.75384 299.542 7.64615 299.969 7.64615C300.397 7.64615 300.825 7.75384 301.145 8.07692C301.466 8.39999 301.573 8.72307 301.573 9.26153V23.4769C301.573 23.9077 301.466 24.3385 301.145 24.6615C300.611 24.8769 300.29 24.9846 299.863 24.9846Z" fill="#FFA06A" stroke="#FFA06A" stroke-width="0.25" stroke-miterlimit="10"></path><path d="M313.439 9.15384C314.829 8.07691 316.432 7.53845 318.25 7.53845C319.319 7.53845 320.388 7.75384 321.35 8.18461C322.312 8.61538 323.167 9.15384 323.915 9.90768C324.664 10.6615 325.198 11.5231 325.626 12.4923C326.054 13.4615 326.267 14.5385 326.267 15.6154V23.2615C326.267 23.6923 326.16 24.1231 325.84 24.4461C325.519 24.7692 325.198 24.8769 324.664 24.8769C324.236 24.8769 323.809 24.7692 323.488 24.4461C323.167 24.1231 323.06 23.6923 323.06 23.2615V15.6154C323.06 14.9692 322.953 14.3231 322.633 13.7846C322.419 13.2461 321.991 12.7077 321.564 12.2769C321.136 11.8461 320.601 11.5231 320.067 11.2C319.532 10.9846 318.891 10.7692 318.25 10.7692C317.608 10.7692 316.967 10.8769 316.325 11.2C315.791 11.4154 315.256 11.8461 314.829 12.2769C314.401 12.7077 314.08 13.2461 313.76 13.7846C313.546 14.3231 313.332 14.9692 313.332 15.6154V23.2615C313.332 23.6923 313.225 24.1231 312.904 24.4461C312.584 24.7692 312.263 24.8769 311.729 24.8769C311.301 24.8769 310.873 24.7692 310.553 24.4461C310.232 24.1231 310.125 23.6923 310.125 23.2615V9.26153C310.125 8.83076 310.232 8.39999 310.553 8.07691C310.873 7.75384 311.301 7.64614 311.729 7.64614C312.156 7.64614 312.584 7.75384 312.904 8.07691C313.225 8.39999 313.439 8.83076 313.439 9.15384Z" fill="#FFA06A" stroke="#FFA06A" stroke-width="0.25" stroke-miterlimit="10"></path><path d="M341.234 7.64613C343.265 7.64613 345.083 8.29228 346.686 9.58459V1.72305C346.686 1.29228 346.793 0.861512 347.114 0.538435C347.435 0.215358 347.755 0.107666 348.29 0.107666C348.718 0.107666 349.145 0.215358 349.466 0.538435C349.787 0.861512 349.893 1.18459 349.893 1.72305V16.2615C349.893 18.7384 349.038 20.7846 347.328 22.4C345.617 24.123 343.586 24.9846 341.234 24.9846C338.882 24.9846 336.851 24.123 335.141 22.4C333.43 20.6769 332.575 18.6307 332.575 16.2615C332.575 13.8923 333.43 11.8461 335.141 10.123C336.744 8.50766 338.776 7.64613 341.234 7.64613ZM346.579 16.3692C346.579 15.6154 346.473 14.9692 346.152 14.2154C345.831 13.5692 345.51 13.0307 344.976 12.4923C344.441 11.9538 343.907 11.6307 343.265 11.3077C342.624 10.9846 341.876 10.8769 341.127 10.8769C340.379 10.8769 339.631 10.9846 338.989 11.3077C338.348 11.6307 337.707 11.9538 337.279 12.4923C336.744 13.0307 336.424 13.5692 336.103 14.2154C335.782 14.8615 335.675 15.6154 335.675 16.3692C335.675 17.123 335.782 17.8769 336.103 18.5231C336.424 19.1692 336.744 19.8154 337.279 20.2461C337.813 20.7846 338.348 21.1077 338.989 21.4307C339.631 21.7538 340.379 21.8615 341.127 21.8615C341.876 21.8615 342.624 21.7538 343.265 21.4307C343.907 21.1077 344.548 20.7846 344.976 20.2461C345.51 19.7077 345.831 19.1692 346.152 18.5231C346.473 17.7692 346.579 17.0154 346.579 16.3692Z" fill="#FFA06A" stroke="#FFA06A" stroke-width="0.25" stroke-miterlimit="10"></path></g><defs><clipPath id="clip0_82_115"><rect width="350" height="91" fill="white"></rect></clipPath></defs></svg>